<svg width="120" height="41" viewBox="0 0 120 41" fill="none" xmlns="http://www.w3.org/2000/svg">
<g id="App Store - Filled">
<g id="Group">
<g id="Group_2">
<path id="Vector" d="M110.135 0.482552H9.53468C9.16798 0.482552 8.80568 0.482552 8.43995 0.484552C8.1338 0.486552 7.83009 0.492362 7.521 0.497252C6.84951 0.505154 6.17961 0.564228 5.5171 0.673962C4.85552 0.786085 4.21467 0.997468 3.61622 1.30096C3.0185 1.60702 2.47235 2.00472 1.99757 2.47962C1.5203 2.95319 1.12246 3.50057 0.81935 4.10071C0.5154 4.69966 0.304641 5.34149 0.19435 6.00403C0.0830109 6.66574 0.0230984 7.33507 0.01515 8.00603C0.00587 8.31263 0.00489 8.62025 0 8.92689V32.0412C0.00489 32.3517 0.00587 32.6525 0.01515 32.9631C0.0231008 33.634 0.0830134 34.3033 0.19435 34.965C0.304336 35.6279 0.515108 36.2701 0.81935 36.8693C1.12233 37.4675 1.52022 38.0126 1.99757 38.4836C2.47054 38.9606 3.01705 39.3585 3.61622 39.6623C4.21467 39.9666 4.85545 40.1792 5.5171 40.2931C6.17972 40.4019 6.84956 40.461 7.521 40.4699C7.83009 40.4767 8.1338 40.4806 8.43995 40.4806C8.80567 40.4826 9.168 40.4826 9.53468 40.4826H110.135C110.494 40.4826 110.859 40.4826 111.219 40.4806C111.523 40.4806 111.836 40.4767 112.141 40.4699C112.811 40.4615 113.479 40.4024 114.141 40.2931C114.804 40.1784 115.448 39.9658 116.049 39.6623C116.647 39.3584 117.193 38.9604 117.666 38.4836C118.142 38.0108 118.541 37.466 118.848 36.8693C119.15 36.2696 119.358 35.6275 119.467 34.965C119.578 34.3032 119.64 33.634 119.652 32.9631C119.656 32.6525 119.656 32.3517 119.656 32.0412C119.664 31.6779 119.664 31.3166 119.664 30.9474V10.0187C119.664 9.65247 119.664 9.28919 119.656 8.92689C119.656 8.62025 119.656 8.31263 119.652 8.00599C119.64 7.33497 119.578 6.66579 119.467 6.00399C119.358 5.34183 119.149 4.70006 118.848 4.10067C118.23 2.89775 117.252 1.91858 116.049 1.30087C115.448 0.998119 114.804 0.786792 114.141 0.673872C113.48 0.563655 112.811 0.50456 112.141 0.497112C111.836 0.492232 111.523 0.486372 111.219 0.484422C110.859 0.482422 110.494 0.482422 110.135 0.482422V0.482552Z" fill="#A6A6A6"/>
<path id="Vector_2" d="M8.44487 39.6074C8.14019 39.6074 7.84287 39.6035 7.54058 39.5967C6.91436 39.5886 6.2896 39.534 5.67144 39.4336C5.09503 39.3343 4.53664 39.1497 4.0147 38.8857C3.49754 38.6239 3.02585 38.2807 2.6177 37.8691C2.20364 37.4624 1.85891 36.9907 1.59719 36.4726C1.33258 35.9512 1.14945 35.3923 1.05419 34.8154C0.951311 34.1955 0.895651 33.5687 0.887687 32.9404C0.881347 32.7295 0.873047 32.0273 0.873047 32.0273V8.92676C0.873047 8.92676 0.881887 8.23535 0.887737 8.03222C0.895363 7.4049 0.950699 6.77908 1.05327 6.16015C1.14871 5.58167 1.33197 5.02117 1.59673 4.49805C1.85749 3.98037 2.2003 3.50828 2.61187 3.1001C3.02297 2.68804 3.49617 2.34303 4.01421 2.07763C4.53495 1.81452 5.09228 1.63115 5.66753 1.53369C6.28772 1.43226 6.91465 1.37742 7.54304 1.36963L8.44536 1.35742H111.214L112.127 1.37012C112.75 1.37752 113.371 1.43187 113.985 1.53271C114.566 1.6314 115.13 1.81604 115.656 2.08056C116.694 2.61541 117.539 3.46159 118.071 4.50049C118.332 5.02 118.512 5.57593 118.607 6.14941C118.71 6.77341 118.768 7.40416 118.78 8.03662C118.783 8.31982 118.783 8.62402 118.783 8.92676C118.791 9.30176 118.791 9.65869 118.791 10.0186V30.9472C118.791 31.3105 118.791 31.665 118.783 32.0224C118.783 32.3476 118.783 32.6455 118.779 32.9521C118.768 33.5733 118.711 34.1928 118.608 34.8056C118.515 35.3867 118.333 35.9499 118.068 36.4756C117.805 36.988 117.462 37.4557 117.053 37.8613C116.644 38.2751 116.172 38.6204 115.653 38.8838C115.128 39.1498 114.566 39.3352 113.985 39.4336C113.367 39.5346 112.742 39.5891 112.116 39.5967C111.823 39.6035 111.517 39.6074 111.219 39.6074L110.135 39.6094L8.44487 39.6074Z" fill="black"/>
</g>
<g id="&#60;Group&#62;">
<g id="&#60;Group&#62;_2">
<g id="&#60;Group&#62;_3">
<path id="&#60;Path&#62;" d="M24.769 20.7837C24.7797 19.9491 25.0014 19.1307 25.4135 18.4047C25.8255 17.6788 26.4145 17.0688 27.1256 16.6317C26.6738 15.9865 26.0779 15.4556 25.385 15.081C24.6922 14.7065 23.9216 14.4986 23.1344 14.474C21.4552 14.2977 19.8272 15.4788 18.9715 15.4788C18.0992 15.4788 16.7817 14.4915 15.363 14.5207C14.4453 14.5503 13.551 14.8172 12.7671 15.2952C11.9832 15.7733 11.3365 16.4463 10.8901 17.2485C8.95607 20.597 10.3987 25.518 12.2513 28.2246C13.1782 29.55 14.2615 31.0304 15.6789 30.9779C17.066 30.9204 17.584 30.0934 19.2583 30.0934C20.9171 30.0934 21.4031 30.9779 22.8493 30.9445C24.3377 30.9204 25.2754 29.6133 26.1698 28.2754C26.8358 27.331 27.3483 26.2873 27.6882 25.1829C26.8235 24.8172 26.0856 24.205 25.5665 23.4227C25.0474 22.6404 24.77 21.7226 24.769 20.7837Z" fill="white"/>
<path id="&#60;Path&#62;_2" d="M22.0376 12.6937C22.8491 11.7195 23.2489 10.4674 23.1521 9.20312C21.9123 9.33335 20.767 9.9259 19.9445 10.8627C19.5424 11.3204 19.2344 11.8528 19.0381 12.4296C18.8419 13.0064 18.7612 13.6162 18.8008 14.2241C19.4209 14.2305 20.0344 14.0961 20.5951 13.831C21.1558 13.5659 21.649 13.1771 22.0376 12.6937Z" fill="white"/>
</g>
</g>
<g id="Group_3">
<path id="Vector_3" d="M42.3022 27.6221H37.5688L36.4321 30.9785H34.4272L38.9106 18.5605H40.9936L45.477 30.9785H43.438L42.3022 27.6221ZM38.0591 26.0733H41.8111L39.9615 20.626H39.9097L38.0591 26.0733Z" fill="white"/>
<path id="Vector_4" d="M55.1597 26.4519C55.1597 29.2654 53.6538 31.073 51.3814 31.073C50.8057 31.1031 50.2332 30.9705 49.7294 30.6903C49.2256 30.4102 48.8109 29.9938 48.5327 29.489H48.4897V33.9733H46.6313V21.9245H48.4302V23.4304H48.4644C48.7553 22.9279 49.1771 22.5137 49.6847 22.2319C50.1923 21.95 50.7669 21.8111 51.3472 21.8298C53.645 21.8298 55.1597 23.6462 55.1597 26.4519ZM53.2495 26.4519C53.2495 24.6189 52.3023 23.4138 50.857 23.4138C49.437 23.4138 48.482 24.6443 48.482 26.4519C48.482 28.2761 49.437 29.4978 50.857 29.4978C52.3023 29.4978 53.2495 28.3015 53.2495 26.4519Z" fill="white"/>
<path id="Vector_5" d="M65.1245 26.4519C65.1245 29.2653 63.6187 31.073 61.3462 31.073C60.7706 31.1031 60.1981 30.9705 59.6943 30.6903C59.1905 30.4102 58.7758 29.9938 58.4976 29.489H58.4546V33.9733H56.5962V21.9245H58.395V23.4304H58.4292C58.7201 22.9279 59.1419 22.5137 59.6495 22.2319C60.1571 21.95 60.7317 21.8111 61.312 21.8298C63.6099 21.8298 65.1245 23.6462 65.1245 26.4519ZM63.2144 26.4519C63.2144 24.6189 62.2671 23.4138 60.8218 23.4138C59.4019 23.4138 58.4468 24.6442 58.4468 26.4519C58.4468 28.2761 59.4019 29.4978 60.8218 29.4978C62.2671 29.4978 63.2144 28.3015 63.2144 26.4519H63.2144Z" fill="white"/>
<path id="Vector_6" d="M71.7105 27.5186C71.8482 28.7501 73.0445 29.5586 74.6792 29.5586C76.2456 29.5586 77.3726 28.75 77.3726 27.6397C77.3726 26.6758 76.6929 26.0987 75.0835 25.7031L73.4742 25.3154C71.1939 24.7647 70.1353 23.6982 70.1353 21.9678C70.1353 19.8252 72.0025 18.3535 74.6538 18.3535C77.2778 18.3535 79.0767 19.8252 79.1372 21.9678H77.2612C77.1489 20.7285 76.1245 19.9805 74.6274 19.9805C73.1304 19.9805 72.106 20.7373 72.106 21.8389C72.106 22.7168 72.7603 23.2334 74.3608 23.6289L75.729 23.9648C78.2769 24.5674 79.3355 25.5908 79.3355 27.4072C79.3355 29.7304 77.4849 31.1855 74.5415 31.1855C71.7876 31.1855 69.9282 29.7646 69.8081 27.5185L71.7105 27.5186Z" fill="white"/>
<path id="Vector_7" d="M83.3462 19.7822V21.9248H85.0679V23.3965H83.3462V28.3877C83.3462 29.1631 83.6909 29.5244 84.4477 29.5244C84.6521 29.5209 84.8562 29.5065 85.0591 29.4814V30.9443C84.7188 31.0079 84.3729 31.0367 84.0268 31.0302C82.1938 31.0302 81.479 30.3418 81.479 28.5859V23.3965H80.1626V21.9248H81.479V19.7822H83.3462Z" fill="white"/>
<path id="Vector_8" d="M86.0649 26.4521C86.0649 23.6035 87.7427 21.8135 90.3589 21.8135C92.9839 21.8135 94.6538 23.6035 94.6538 26.4521C94.6538 29.3086 92.9927 31.0908 90.3589 31.0908C87.726 31.0908 86.0649 29.3086 86.0649 26.4521ZM92.7602 26.4521C92.7602 24.498 91.8647 23.3447 90.3589 23.3447C88.853 23.3447 87.9585 24.5068 87.9585 26.4521C87.9585 28.4141 88.853 29.5586 90.3589 29.5586C91.8647 29.5586 92.7602 28.4141 92.7602 26.4521H92.7602Z" fill="white"/>
<path id="Vector_9" d="M96.186 21.9244H97.9585V23.4654H98.0015C98.1214 22.9842 98.4034 22.5588 98.8 22.2609C99.1966 21.9631 99.6836 21.8108 100.179 21.8297C100.393 21.829 100.607 21.8522 100.816 21.899V23.6373C100.546 23.5547 100.264 23.5168 99.981 23.525C99.711 23.5141 99.4418 23.5617 99.192 23.6646C98.9421 23.7674 98.7175 23.9232 98.5335 24.1211C98.3496 24.319 98.2106 24.5543 98.1262 24.811C98.0417 25.0677 98.0139 25.3396 98.0444 25.608V30.9781H96.186L96.186 21.9244Z" fill="white"/>
<path id="Vector_10" d="M109.384 28.3193C109.134 29.9629 107.534 31.0908 105.486 31.0908C102.852 31.0908 101.217 29.3262 101.217 26.4951C101.217 23.6553 102.861 21.8135 105.408 21.8135C107.913 21.8135 109.488 23.5342 109.488 26.2793V26.916H103.093V27.0283C103.064 27.3615 103.105 27.6972 103.216 28.013C103.326 28.3289 103.502 28.6176 103.732 28.8602C103.963 29.1027 104.242 29.2935 104.552 29.4198C104.861 29.5461 105.195 29.6051 105.529 29.5928C105.968 29.6339 106.409 29.5322 106.785 29.3028C107.162 29.0733 107.455 28.7284 107.62 28.3193L109.384 28.3193ZM103.102 25.6172H107.628C107.645 25.3176 107.6 25.0178 107.495 24.7366C107.39 24.4554 107.229 24.1988 107.02 23.9831C106.812 23.7673 106.561 23.597 106.283 23.4827C106.006 23.3685 105.708 23.3129 105.408 23.3193C105.105 23.3175 104.805 23.3757 104.525 23.4904C104.245 23.6052 103.99 23.7742 103.776 23.9879C103.562 24.2015 103.392 24.4555 103.276 24.7351C103.16 25.0148 103.101 25.3146 103.102 25.6172V25.6172Z" fill="white"/>
</g>
</g>
</g>
<g id="&#60;Group&#62;_4">
<g id="Group_4">
<path id="Vector_11" d="M37.8262 9.21283C38.2158 9.18487 38.6067 9.24373 38.9709 9.38516C39.335 9.52659 39.6632 9.74707 39.9317 10.0307C40.2003 10.3143 40.4026 10.654 40.524 11.0253C40.6454 11.3966 40.6829 11.7902 40.6338 12.1777C40.6338 14.0839 39.6035 15.1797 37.8262 15.1797H35.6709V9.21283H37.8262ZM36.5976 14.3358H37.7226C38.0011 14.3525 38.2797 14.3068 38.5382 14.2022C38.7967 14.0976 39.0287 13.9366 39.2172 13.7311C39.4057 13.5255 39.546 13.2805 39.6278 13.0139C39.7097 12.7473 39.7311 12.4657 39.6904 12.1898C39.7281 11.915 39.7046 11.6352 39.6215 11.3706C39.5383 11.1059 39.3977 10.8629 39.2096 10.659C39.0216 10.455 38.7907 10.2952 38.5337 10.191C38.2766 10.0867 37.9996 10.0407 37.7226 10.056H36.5976V14.3358Z" fill="white"/>
<path id="Vector_12" d="M41.6805 12.9262C41.6521 12.6303 41.686 12.3317 41.7798 12.0497C41.8737 11.7676 42.0254 11.5083 42.2254 11.2883C42.4253 11.0683 42.669 10.8925 42.9409 10.7722C43.2127 10.652 43.5067 10.5898 43.804 10.5898C44.1013 10.5898 44.3952 10.652 44.6671 10.7722C44.939 10.8925 45.1827 11.0683 45.3826 11.2883C45.5825 11.5083 45.7343 11.7676 45.8281 12.0497C45.922 12.3317 45.9558 12.6303 45.9275 12.9262C45.9564 13.2224 45.9229 13.5214 45.8293 13.804C45.7357 14.0865 45.5841 14.3463 45.3841 14.5667C45.1841 14.7871 44.9402 14.9633 44.6681 15.0838C44.3959 15.2043 44.1016 15.2666 43.804 15.2666C43.5064 15.2666 43.212 15.2043 42.9399 15.0838C42.6678 14.9633 42.4239 14.7871 42.2239 14.5667C42.0239 14.3463 41.8722 14.0865 41.7786 13.804C41.6851 13.5214 41.6516 13.2224 41.6805 12.9262ZM45.0135 12.9262C45.0135 11.9502 44.575 11.3794 43.8055 11.3794C43.033 11.3794 42.5985 11.9502 42.5985 12.9262C42.5985 13.9101 43.033 14.4765 43.8055 14.4765C44.575 14.4765 45.0135 13.9062 45.0135 12.9262H45.0135Z" fill="white"/>
<path id="Vector_13" d="M51.5732 15.1797H50.6514L49.7207 11.8633H49.6504L48.7236 15.1797H47.8105L46.5693 10.6768H47.4707L48.2773 14.1128H48.3438L49.2695 10.6768H50.1221L51.0479 14.1128H51.1182L51.9209 10.6768H52.8096L51.5732 15.1797Z" fill="white"/>
<path id="Vector_14" d="M53.8535 10.6763H54.709V11.3916H54.7754C54.888 11.1347 55.0781 10.9194 55.3189 10.7755C55.5598 10.6317 55.8395 10.5667 56.1191 10.5894C56.3382 10.5729 56.5582 10.606 56.7628 10.6861C56.9674 10.7661 57.1514 10.8913 57.3011 11.0521C57.4508 11.2129 57.5623 11.4054 57.6275 11.6152C57.6927 11.825 57.7099 12.0468 57.6777 12.2642V15.1792H56.7891V12.4874C56.7891 11.7637 56.4746 11.4039 55.8174 11.4039C55.6686 11.3969 55.5201 11.4222 55.3821 11.4781C55.244 11.5339 55.1197 11.6189 55.0175 11.7273C54.9154 11.8357 54.8379 11.9649 54.7904 12.106C54.7429 12.2471 54.7264 12.3969 54.7422 12.545V15.1792H53.8535L53.8535 10.6763Z" fill="white"/>
<path id="Vector_15" d="M59.0938 8.91895H59.9824V15.1797H59.0938V8.91895Z" fill="white"/>
<path id="Vector_16" d="M61.2175 12.9263C61.1893 12.6304 61.2231 12.3318 61.317 12.0497C61.4109 11.7676 61.5626 11.5083 61.7626 11.2883C61.9626 11.0683 62.2063 10.8925 62.4782 10.7723C62.75 10.652 63.044 10.5898 63.3413 10.5898C63.6386 10.5898 63.9326 10.652 64.2045 10.7723C64.4764 10.8925 64.7201 11.0683 64.92 11.2883C65.12 11.5083 65.2718 11.7676 65.3656 12.0497C65.4595 12.3318 65.4934 12.6304 65.4651 12.9263C65.4939 13.2225 65.4604 13.5215 65.3668 13.804C65.2732 14.0866 65.1215 14.3464 64.9215 14.5668C64.7215 14.7872 64.4776 14.9633 64.2054 15.0839C63.9333 15.2044 63.639 15.2667 63.3413 15.2667C63.0437 15.2667 62.7493 15.2044 62.4772 15.0839C62.2051 14.9633 61.9612 14.7872 61.7612 14.5668C61.5611 14.3464 61.4095 14.0866 61.3158 13.804C61.2222 13.5215 61.1887 13.2225 61.2175 12.9263ZM64.5505 12.9263C64.5505 11.9502 64.1121 11.3794 63.3425 11.3794C62.5701 11.3794 62.1355 11.9502 62.1355 12.9263C62.1355 13.9102 62.5701 14.4766 63.3425 14.4766C64.1121 14.4766 64.5505 13.9063 64.5505 12.9263H64.5505Z" fill="white"/>
<path id="Vector_17" d="M66.4009 13.9062C66.4009 13.0957 67.0044 12.6284 68.0757 12.562L69.2954 12.4917V12.103C69.2954 11.6274 68.981 11.3589 68.3735 11.3589C67.8774 11.3589 67.5337 11.541 67.4351 11.8594H66.5747C66.6655 11.0859 67.3931 10.5898 68.4146 10.5898C69.5435 10.5898 70.1802 11.1518 70.1802 12.103V15.1797H69.3247V14.5469H69.2544C69.1117 14.7739 68.9113 14.9589 68.6737 15.0831C68.436 15.2073 68.1697 15.2663 67.9019 15.2539C67.7128 15.2735 67.5218 15.2534 67.341 15.1947C67.1602 15.136 66.9938 15.04 66.8524 14.9131C66.711 14.7861 66.5977 14.6309 66.52 14.4575C66.4422 14.2841 66.4016 14.0963 66.4009 13.9062ZM69.2954 13.5215V13.145L68.1958 13.2153C67.5757 13.2568 67.2944 13.4678 67.2944 13.8647C67.2944 14.27 67.646 14.5058 68.1294 14.5058C68.2711 14.5202 68.4142 14.5059 68.5502 14.4638C68.6862 14.4217 68.8123 14.3527 68.9211 14.2608C69.0299 14.169 69.1191 14.0562 69.1834 13.9292C69.2477 13.8022 69.2858 13.6635 69.2954 13.5215Z" fill="white"/>
<path id="Vector_18" d="M71.3481 12.9263C71.3481 11.5034 72.0796 10.6021 73.2173 10.6021C73.4987 10.5891 73.778 10.6565 74.0225 10.7964C74.267 10.9363 74.4667 11.1429 74.5981 11.3921H74.6646V8.91895H75.5532V15.1797H74.7017V14.4683H74.6314C74.4897 14.7157 74.2831 14.9198 74.0339 15.0583C73.7846 15.1967 73.5022 15.2644 73.2173 15.2539C72.0718 15.2539 71.3481 14.3526 71.3481 12.9263ZM72.2661 12.9263C72.2661 13.8814 72.7163 14.4561 73.4693 14.4561C74.2183 14.4561 74.6812 13.8731 74.6812 12.9302C74.6812 11.9917 74.2134 11.4004 73.4693 11.4004C72.7212 11.4004 72.2661 11.979 72.2661 12.9263H72.2661Z" fill="white"/>
<path id="Vector_19" d="M79.2298 12.9262C79.2015 12.6303 79.2353 12.3317 79.3292 12.0497C79.423 11.7676 79.5748 11.5083 79.7747 11.2883C79.9746 11.0683 80.2183 10.8925 80.4902 10.7722C80.762 10.652 81.056 10.5898 81.3533 10.5898C81.6506 10.5898 81.9446 10.652 82.2164 10.7722C82.4883 10.8925 82.732 11.0683 82.9319 11.2883C83.1319 11.5083 83.2836 11.7676 83.3775 12.0497C83.4713 12.3317 83.5052 12.6303 83.4768 12.9262C83.5057 13.2224 83.4722 13.5214 83.3786 13.804C83.2851 14.0865 83.1334 14.3463 82.9334 14.5667C82.7334 14.7871 82.4895 14.9633 82.2174 15.0838C81.9453 15.2043 81.6509 15.2666 81.3533 15.2666C81.0557 15.2666 80.7613 15.2043 80.4892 15.0838C80.2171 14.9633 79.9732 14.7871 79.7732 14.5667C79.5732 14.3463 79.4216 14.0865 79.328 13.804C79.2344 13.5214 79.2009 13.2224 79.2298 12.9262ZM82.5628 12.9262C82.5628 11.9502 82.1243 11.3794 81.3548 11.3794C80.5823 11.3794 80.1478 11.9502 80.1478 12.9262C80.1478 13.9101 80.5823 14.4765 81.3548 14.4765C82.1243 14.4765 82.5628 13.9062 82.5628 12.9262Z" fill="white"/>
<path id="Vector_20" d="M84.6694 10.6763H85.5249V11.3916H85.5913C85.704 11.1347 85.894 10.9194 86.1348 10.7755C86.3757 10.6317 86.6555 10.5667 86.9351 10.5894C87.1542 10.5729 87.3742 10.606 87.5788 10.6861C87.7834 10.7661 87.9673 10.8913 88.117 11.0521C88.2667 11.2129 88.3783 11.4054 88.4435 11.6152C88.5087 11.825 88.5258 12.0468 88.4937 12.2642V15.1792H87.605V12.4874C87.605 11.7637 87.2905 11.4039 86.6333 11.4039C86.4846 11.3969 86.336 11.4222 86.198 11.4781C86.0599 11.5339 85.9356 11.6189 85.8335 11.7273C85.7313 11.8357 85.6539 11.9649 85.6063 12.106C85.5588 12.2471 85.5423 12.3969 85.5581 12.545V15.1792H84.6694V10.6763Z" fill="white"/>
<path id="Vector_21" d="M93.5151 9.55566V10.6973H94.4907V11.4458H93.5151V13.7612C93.5151 14.2329 93.7095 14.4395 94.1519 14.4395C94.2651 14.4391 94.3783 14.4322 94.4907 14.4189V15.1592C94.3311 15.1877 94.1694 15.2029 94.0073 15.2046C93.019 15.2046 92.6255 14.8569 92.6255 13.9888V11.4458H91.9106V10.6972H92.6255V9.55566H93.5151Z" fill="white"/>
<path id="Vector_22" d="M95.7046 8.91895H96.5854V11.4004H96.6558C96.7739 11.1411 96.9691 10.9245 97.2148 10.7801C97.4605 10.6358 97.7447 10.5707 98.0288 10.5938C98.2467 10.5819 98.4646 10.6183 98.6669 10.7003C98.8692 10.7824 99.0508 10.908 99.199 11.0684C99.3471 11.2287 99.458 11.4198 99.5238 11.6279C99.5896 11.836 99.6086 12.0561 99.5795 12.2725V15.1797H98.69V12.4917C98.69 11.7725 98.355 11.4082 97.7271 11.4082C97.5743 11.3957 97.4207 11.4167 97.2769 11.4697C97.1332 11.5228 97.0027 11.6066 96.8947 11.7153C96.7867 11.8241 96.7038 11.9551 96.6517 12.0992C96.5997 12.2434 96.5797 12.3971 96.5933 12.5498V15.1797H95.7046L95.7046 8.91895Z" fill="white"/>
<path id="Vector_23" d="M104.761 13.9639C104.641 14.3755 104.379 14.7315 104.022 14.9696C103.666 15.2078 103.237 15.3129 102.81 15.2667C102.514 15.2745 102.219 15.2177 101.946 15.1002C101.674 14.9826 101.43 14.8072 101.232 14.5861C101.034 14.3649 100.887 14.1034 100.8 13.8195C100.713 13.5357 100.69 13.2364 100.73 12.9425C100.691 12.6476 100.715 12.3476 100.801 12.063C100.888 11.7783 101.035 11.5155 101.231 11.2925C101.428 11.0694 101.671 10.8912 101.943 10.77C102.214 10.6488 102.509 10.5874 102.806 10.5899C104.059 10.5899 104.815 11.4459 104.815 12.8599V13.17H101.635V13.2198C101.621 13.3851 101.642 13.5514 101.696 13.7081C101.751 13.8649 101.837 14.0086 101.95 14.13C102.063 14.2515 102.2 14.348 102.352 14.4134C102.504 14.4788 102.669 14.5117 102.835 14.5098C103.047 14.5353 103.263 14.4971 103.453 14.3998C103.644 14.3026 103.802 14.1509 103.906 13.9639L104.761 13.9639ZM101.635 12.5128H103.91C103.921 12.3616 103.9 12.2098 103.85 12.0671C103.799 11.9244 103.718 11.7939 103.614 11.6841C103.51 11.5742 103.383 11.4874 103.243 11.4292C103.103 11.3711 102.953 11.3428 102.801 11.3463C102.648 11.3443 102.495 11.3732 102.353 11.4311C102.21 11.4891 102.081 11.5749 101.972 11.6837C101.864 11.7924 101.778 11.9217 101.72 12.0641C101.662 12.2065 101.633 12.3591 101.635 12.5128H101.635Z" fill="white"/>
</g>
</g>
</g>
</svg>
