<svg width="24" height="25" viewBox="0 0 24 25" fill="none" xmlns="http://www.w3.org/2000/svg">
<g id="icon / jam-icons / outline &#38; logos / check">
<path id="Vector" d="M10.4862 17.7126C10.355 17.7128 10.2249 17.6872 10.1036 17.6371C9.98229 17.587 9.87205 17.5134 9.77923 17.4206L5.53723 13.1776C5.44166 13.0854 5.3654 12.9751 5.31291 12.8531C5.26041 12.7312 5.23274 12.6 5.23149 12.4672C5.23024 12.3344 5.25545 12.2027 5.30565 12.0798C5.35584 11.9568 5.43001 11.8451 5.52384 11.7512C5.61766 11.6572 5.72926 11.5829 5.85212 11.5325C5.97498 11.4822 6.10664 11.4568 6.23942 11.4578C6.3722 11.4589 6.50344 11.4864 6.62548 11.5387C6.74752 11.591 6.85792 11.6671 6.95023 11.7626L10.4852 15.2976L16.8502 8.93456C17.0377 8.74692 17.2921 8.64145 17.5574 8.64136C17.8226 8.64126 18.0771 8.74655 18.2647 8.93406C18.4524 9.12157 18.5578 9.37594 18.5579 9.64121C18.558 9.90648 18.4527 10.1609 18.2652 10.3486L11.1932 17.4206C11.1004 17.5134 10.9902 17.587 10.8688 17.6371C10.7475 17.6872 10.6175 17.7128 10.4862 17.7126Z" fill="#FB923C"/>
</g>
</svg>
