<svg width="54" height="42" viewBox="0 0 54 42" fill="none" xmlns="http://www.w3.org/2000/svg">
<path id="Vector" d="M45.762 33.5548C34.9915 33.5548 23.7705 33.5548 13.0001 33.5548V29.4523H17.0953C17.0953 27.401 17.0953 23.2984 17.0953 21.2471H21.1905C21.1905 19.1959 21.1905 15.0933 21.1905 13.042H25.2858C25.2858 9.39073 25.2858 4.3856 25.2858 0.734314C23.2382 0.734314 19.1429 0.734314 17.0953 0.734314C17.0953 2.7856 17.0953 6.88816 17.0953 8.93944H13.0001C13.0001 10.9907 13.0001 15.0933 13.0001 17.1446H8.90483C8.90483 19.1959 8.90483 23.2984 8.90483 25.3497H4.80959C4.80959 27.401 4.80959 31.5035 4.80959 33.5548H0.714355C0.714355 35.6061 0.714355 39.7087 0.714355 41.76C16.9725 41.76 33.5991 41.76 49.8572 41.76V37.6574H53.9525V33.5548C51.9048 33.5548 47.8096 33.5548 45.762 33.5548Z" fill="white"/>
</svg>
