<svg width="254" height="105" viewBox="0 0 254 105" fill="none" xmlns="http://www.w3.org/2000/svg">
<g id="Flipper_1">
<path id="Vector 5" d="M3.62061 57.931V72.4138H7.24129V79.6552H10.862V83.2759H14.4827V86.8966H18.1034V90.5172H21.7241V94.1379H25.3447V97.7586H28.9654V101.379H246.207V97.7586H249.827V36.2069H246.207V32.5862H242.586V28.9655H238.965V25.3448H235.345V21.7241H231.724V14.4828H228.103V10.8621H224.483V7.24138H220.862V3.62069H39.8275V7.24138H36.2068V14.4828H32.5861V18.1034H28.9654V25.3448H25.3447V28.9655H21.7241V36.2069H18.1034V39.8276H14.4827V47.069H10.862V50.6897H7.24129V57.931H3.62061Z" fill="white"/>
<rect id="Rectangle 2529" x="39.8276" width="181.034" height="3.62069" fill="black"/>
<rect id="Rectangle 2530" x="36.2065" y="3.62069" width="3.62069" height="3.62069" fill="black"/>
<rect id="Rectangle 2536" x="32.5859" y="7.24138" width="3.62069" height="3.62069" fill="black"/>
<rect id="Rectangle 2537" x="32.5859" y="10.8621" width="3.62069" height="3.62069" fill="black"/>
<rect id="Rectangle 2539" x="28.9658" y="14.4828" width="3.62069" height="3.62069" fill="black"/>
<rect id="Rectangle 2540" x="25.3447" y="18.1034" width="3.62069" height="7.24138" fill="black"/>
<rect id="Rectangle 2548" x="10.8618" y="39.8276" width="3.62069" height="7.24138" fill="black"/>
<rect id="Rectangle 2551" y="57.931" width="3.62069" height="14.4828" fill="black"/>
<rect id="Rectangle 2550" x="3.62061" y="50.6897" width="3.62069" height="7.24138" fill="black"/>
<rect id="Rectangle 2552" x="3.62061" y="72.4138" width="3.62069" height="7.24138" fill="black"/>
<rect id="Rectangle 2545" x="18.1035" y="28.9655" width="3.62069" height="7.24138" fill="black"/>
<rect id="Rectangle 2546" x="14.4824" y="36.2069" width="3.62069" height="3.62069" fill="black"/>
<rect id="Rectangle 2549" x="7.2417" y="47.069" width="3.62069" height="3.62069" fill="black"/>
<rect id="Rectangle 2553" x="7.2417" y="79.6552" width="3.62069" height="3.62069" fill="black"/>
<rect id="Rectangle 2554" x="10.8618" y="83.2759" width="3.62069" height="3.62069" fill="black"/>
<rect id="Rectangle 2555" x="14.4824" y="86.8965" width="3.62069" height="3.62069" fill="black"/>
<rect id="Rectangle 2556" x="18.1035" y="90.5172" width="3.62069" height="3.62069" fill="black"/>
<rect id="Rectangle 2557" x="21.7241" y="94.1379" width="3.62069" height="3.62069" fill="black"/>
<rect id="Rectangle 2558" x="25.3447" y="97.7586" width="3.62069" height="3.62069" fill="black"/>
<rect id="Rectangle 2559" x="28.9658" y="101.379" width="217.241" height="3.62069" fill="black"/>
<rect id="Rectangle 2543" x="21.7241" y="25.3448" width="3.62069" height="3.62069" fill="black"/>
<rect id="Rectangle 2531" x="220.862" y="3.62068" width="3.62069" height="3.62069" fill="black"/>
<rect id="Rectangle 2560" x="181.034" y="18.1034" width="18.1034" height="3.62069" fill="black"/>
<rect id="Rectangle 2593" x="61.5518" y="18.1034" width="90.5172" height="3.62069" fill="black"/>
<rect id="Rectangle 2597" x="61.5518" y="21.7241" width="3.62069" height="3.62069" fill="black"/>
<rect id="Rectangle 2610" x="65.1724" y="25.3448" width="3.62069" height="3.62069" fill="black"/>
<rect id="Rectangle 2622" x="61.5518" y="28.9655" width="3.62069" height="3.62069" fill="black"/>
<rect id="Rectangle 2695" x="65.1724" y="36.2069" width="3.62069" height="3.62069" fill="black"/>
<rect id="Rectangle 2697" x="94.1382" y="32.5862" width="3.62069" height="3.62069" fill="black"/>
<rect id="Rectangle 2698" x="97.7583" y="36.2069" width="3.62069" height="3.62069" fill="black"/>
<rect id="Rectangle 2699" x="97.7583" y="39.8276" width="14.4828" height="3.62069" fill="black"/>
<rect id="Rectangle 2696" x="72.4141" y="39.8276" width="10.8621" height="10.8621" fill="black"/>
<rect id="Rectangle 2694" x="65.1724" y="32.5862" width="7.24138" height="3.62069" fill="black"/>
<rect id="Rectangle 2700" x="97.7583" y="43.4483" width="7.24138" height="3.62069" fill="black"/>
<rect id="Rectangle 2708" x="108.621" y="65.1724" width="7.24138" height="3.62069" fill="black"/>
<rect id="Rectangle 2702" x="108.621" y="47.069" width="7.24138" height="3.62069" fill="black"/>
<rect id="Rectangle 2703" x="105" y="50.6897" width="10.8621" height="3.62069" fill="black"/>
<rect id="Rectangle 2704" x="101.379" y="54.3103" width="10.8621" height="3.62069" fill="black"/>
<rect id="Rectangle 2707" x="97.7583" y="61.5517" width="18.1034" height="3.62069" fill="black"/>
<rect id="Rectangle 2709" x="90.5176" y="68.7931" width="21.7241" height="3.62069" fill="black"/>
<rect id="Rectangle 2706" x="86.8965" y="57.931" width="28.9655" height="3.62069" fill="black"/>
<rect id="Rectangle 2693" x="68.793" y="28.9655" width="25.3448" height="3.62069" fill="black"/>
<rect id="Rectangle 2692" x="61.5518" y="36.2069" width="3.62069" height="7.24138" fill="black"/>
<rect id="Rectangle 2611" x="72.4141" y="25.3448" width="3.62069" height="3.62069" fill="black"/>
<rect id="Rectangle 2612" x="79.6553" y="25.3448" width="3.62069" height="3.62069" fill="black"/>
<rect id="Rectangle 2613" x="86.8965" y="25.3448" width="3.62069" height="3.62069" fill="black"/>
<rect id="Rectangle 2614" x="94.1382" y="25.3448" width="3.62069" height="3.62069" fill="black"/>
<rect id="Rectangle 2623" x="97.7583" y="28.9655" width="3.62069" height="3.62069" fill="black"/>
<rect id="Rectangle 2624" x="101.379" y="32.5862" width="3.62069" height="3.62069" fill="black"/>
<rect id="Rectangle 2625" x="105" y="36.2069" width="3.62069" height="3.62069" fill="black"/>
<rect id="Rectangle 2701" x="94.1382" y="47.069" width="3.62069" height="3.62069" fill="black"/>
<rect id="Rectangle 2705" x="83.2759" y="54.3103" width="3.62069" height="3.62069" fill="black"/>
<rect id="Rectangle 2627" x="112.242" y="43.4483" width="3.62069" height="3.62069" fill="black"/>
<rect id="Rectangle 2628" x="115.862" y="47.069" width="3.62069" height="3.62069" fill="black"/>
<rect id="Rectangle 2629" x="119.482" y="50.6897" width="3.62069" height="3.62069" fill="black"/>
<rect id="Rectangle 2630" x="123.104" y="54.3103" width="3.62069" height="3.62069" fill="black"/>
<rect id="Rectangle 2683" x="119.482" y="57.931" width="3.62069" height="3.62069" fill="black"/>
<rect id="Rectangle 2691" x="115.862" y="61.5517" width="3.62069" height="3.62069" fill="black"/>
<rect id="Rectangle 2685" x="123.104" y="61.5517" width="3.62069" height="3.62069" fill="black"/>
<rect id="Rectangle 2688" x="119.482" y="65.1724" width="3.62069" height="3.62069" fill="black"/>
<rect id="Rectangle 2689" x="115.862" y="68.7931" width="3.62069" height="3.62069" fill="black"/>
<rect id="Rectangle 2686" x="126.724" y="65.1724" width="3.62069" height="3.62069" fill="black"/>
<rect id="Rectangle 2690" x="123.104" y="68.7931" width="3.62069" height="3.62069" fill="black"/>
<rect id="Rectangle 2687" x="130.345" y="68.7931" width="3.62069" height="3.62069" fill="black"/>
<rect id="Rectangle 2684" x="115.862" y="54.3103" width="3.62069" height="3.62069" fill="black"/>
<rect id="Rectangle 2631" x="126.724" y="57.931" width="3.62069" height="3.62069" fill="black"/>
<rect id="Rectangle 2632" x="130.345" y="61.5517" width="3.62069" height="3.62069" fill="black"/>
<rect id="Rectangle 2633" x="133.966" y="65.1724" width="3.62069" height="3.62069" fill="black"/>
<rect id="Rectangle 2634" x="137.586" y="68.7931" width="3.62069" height="3.62069" fill="black"/>
<rect id="Rectangle 2615" x="101.379" y="25.3448" width="3.62069" height="3.62069" fill="black"/>
<rect id="Rectangle 2635" x="105" y="28.9655" width="3.62069" height="3.62069" fill="black"/>
<rect id="Rectangle 2636" x="108.621" y="32.5862" width="3.62069" height="3.62069" fill="black"/>
<rect id="Rectangle 2637" x="112.242" y="36.2069" width="3.62069" height="3.62069" fill="black"/>
<rect id="Rectangle 2638" x="115.862" y="39.8276" width="3.62069" height="3.62069" fill="black"/>
<rect id="Rectangle 2639" x="119.482" y="43.4483" width="3.62069" height="3.62069" fill="black"/>
<rect id="Rectangle 2640" x="123.104" y="47.069" width="3.62069" height="3.62069" fill="black"/>
<rect id="Rectangle 2641" x="126.724" y="50.6897" width="3.62069" height="3.62069" fill="black"/>
<rect id="Rectangle 2642" x="130.345" y="54.3103" width="3.62069" height="3.62069" fill="black"/>
<rect id="Rectangle 2643" x="133.966" y="57.931" width="3.62069" height="3.62069" fill="black"/>
<rect id="Rectangle 2644" x="137.586" y="61.5517" width="3.62069" height="3.62069" fill="black"/>
<rect id="Rectangle 2645" x="141.207" y="65.1724" width="3.62069" height="3.62069" fill="black"/>
<rect id="Rectangle 2665" x="144.828" y="61.5517" width="3.62069" height="3.62069" fill="black"/>
<rect id="Rectangle 2666" x="148.448" y="65.1724" width="3.62069" height="3.62069" fill="black"/>
<rect id="Rectangle 2710" x="159.31" y="68.7931" width="7.24138" height="7.24138" fill="black"/>
<rect id="Rectangle 2646" x="144.828" y="68.7931" width="3.62069" height="3.62069" fill="black"/>
<rect id="Rectangle 2616" x="108.621" y="25.3448" width="3.62069" height="3.62069" fill="black"/>
<rect id="Rectangle 2647" x="112.242" y="28.9655" width="3.62069" height="3.62069" fill="black"/>
<rect id="Rectangle 2649" x="115.862" y="32.5862" width="3.62069" height="3.62069" fill="black"/>
<rect id="Rectangle 2651" x="119.482" y="36.2069" width="3.62069" height="3.62069" fill="black"/>
<rect id="Rectangle 2653" x="123.104" y="39.8276" width="3.62069" height="3.62069" fill="black"/>
<rect id="Rectangle 2655" x="126.724" y="43.4483" width="3.62069" height="3.62069" fill="black"/>
<rect id="Rectangle 2657" x="130.345" y="47.069" width="3.62069" height="3.62069" fill="black"/>
<rect id="Rectangle 2659" x="133.966" y="50.6897" width="3.62069" height="3.62069" fill="black"/>
<rect id="Rectangle 2661" x="137.586" y="54.3103" width="3.62069" height="3.62069" fill="black"/>
<rect id="Rectangle 2663" x="141.207" y="57.931" width="3.62069" height="3.62069" fill="black"/>
<rect id="Rectangle 2617" x="115.862" y="25.3448" width="3.62069" height="3.62069" fill="black"/>
<rect id="Rectangle 2648" x="119.482" y="28.9655" width="3.62069" height="3.62069" fill="black"/>
<rect id="Rectangle 2650" x="123.104" y="32.5862" width="3.62069" height="3.62069" fill="black"/>
<rect id="Rectangle 2652" x="126.724" y="36.2069" width="3.62069" height="3.62069" fill="black"/>
<rect id="Rectangle 2654" x="130.345" y="39.8276" width="3.62069" height="3.62069" fill="black"/>
<rect id="Rectangle 2656" x="133.966" y="43.4483" width="3.62069" height="3.62069" fill="black"/>
<rect id="Rectangle 2658" x="137.586" y="47.069" width="3.62069" height="3.62069" fill="black"/>
<rect id="Rectangle 2660" x="141.207" y="50.6897" width="3.62069" height="3.62069" fill="black"/>
<rect id="Rectangle 2662" x="144.828" y="54.3103" width="3.62069" height="3.62069" fill="black"/>
<rect id="Rectangle 2664" x="148.448" y="57.931" width="3.62069" height="3.62069" fill="black"/>
<rect id="Rectangle 2618" x="123.104" y="25.3448" width="3.62069" height="3.62069" fill="black"/>
<rect id="Rectangle 2667" x="126.724" y="28.9655" width="3.62069" height="3.62069" fill="black"/>
<rect id="Rectangle 2669" x="130.345" y="32.5862" width="3.62069" height="3.62069" fill="black"/>
<rect id="Rectangle 2671" x="133.966" y="36.2069" width="3.62069" height="3.62069" fill="black"/>
<rect id="Rectangle 2673" x="137.586" y="39.8276" width="3.62069" height="3.62069" fill="black"/>
<rect id="Rectangle 2675" x="141.207" y="43.4483" width="3.62069" height="3.62069" fill="black"/>
<rect id="Rectangle 2619" x="130.345" y="25.3448" width="3.62069" height="3.62069" fill="black"/>
<rect id="Rectangle 2668" x="133.966" y="28.9655" width="3.62069" height="3.62069" fill="black"/>
<rect id="Rectangle 2670" x="137.586" y="32.5862" width="3.62069" height="3.62069" fill="black"/>
<rect id="Rectangle 2679" x="141.207" y="28.9655" width="3.62069" height="3.62069" fill="black"/>
<rect id="Rectangle 2672" x="141.207" y="36.2069" width="3.62069" height="3.62069" fill="black"/>
<rect id="Rectangle 2680" x="144.828" y="32.5862" width="3.62069" height="3.62069" fill="black"/>
<rect id="Rectangle 2682" x="148.448" y="36.2069" width="3.62069" height="3.62069" fill="black"/>
<rect id="Rectangle 2674" x="144.828" y="39.8276" width="3.62069" height="3.62069" fill="black"/>
<rect id="Rectangle 2676" x="148.448" y="43.4483" width="3.62069" height="3.62069" fill="black"/>
<rect id="Rectangle 2677" x="144.828" y="47.069" width="3.62069" height="3.62069" fill="black"/>
<rect id="Rectangle 2678" x="148.448" y="50.6897" width="3.62069" height="3.62069" fill="black"/>
<rect id="Rectangle 2620" x="137.586" y="25.3448" width="3.62069" height="3.62069" fill="black"/>
<rect id="Rectangle 2621" x="144.828" y="25.3448" width="3.62069" height="3.62069" fill="black"/>
<rect id="Rectangle 2681" x="148.448" y="28.9655" width="3.62069" height="3.62069" fill="black"/>
<rect id="Rectangle 2598" x="68.793" y="21.7241" width="3.62069" height="3.62069" fill="black"/>
<rect id="Rectangle 2599" x="76.0342" y="21.7241" width="3.62069" height="3.62069" fill="black"/>
<rect id="Rectangle 2600" x="83.2759" y="21.7241" width="3.62069" height="3.62069" fill="black"/>
<rect id="Rectangle 2601" x="90.5176" y="21.7241" width="3.62069" height="3.62069" fill="black"/>
<rect id="Rectangle 2602" x="97.7583" y="21.7241" width="3.62069" height="3.62069" fill="black"/>
<rect id="Rectangle 2603" x="105" y="21.7241" width="3.62069" height="3.62069" fill="black"/>
<rect id="Rectangle 2604" x="112.242" y="21.7241" width="3.62069" height="3.62069" fill="black"/>
<rect id="Rectangle 2605" x="119.482" y="21.7241" width="3.62069" height="3.62069" fill="black"/>
<rect id="Rectangle 2606" x="126.724" y="21.7241" width="3.62069" height="3.62069" fill="black"/>
<rect id="Rectangle 2607" x="133.966" y="21.7241" width="3.62069" height="3.62069" fill="black"/>
<rect id="Rectangle 2608" x="141.207" y="21.7241" width="3.62069" height="3.62069" fill="black"/>
<rect id="Rectangle 2609" x="148.448" y="21.7241" width="3.62069" height="3.62069" fill="black"/>
<rect id="Rectangle 2596" x="61.5518" y="72.4138" width="90.5172" height="3.62069" fill="black"/>
<rect id="Rectangle 2594" x="57.9312" y="21.7241" width="3.62069" height="50.6897" fill="black"/>
<rect id="Rectangle 2595" x="152.069" y="21.7241" width="3.62069" height="50.6897" fill="black"/>
<rect id="Rectangle 2587" x="228.104" y="50.6897" width="7.24138" height="3.62069" fill="black"/>
<rect id="Rectangle 2592" x="228.104" y="68.7931" width="7.24138" height="3.62069" fill="black"/>
<rect id="Rectangle 2588" x="224.482" y="54.3103" width="14.4828" height="3.62069" fill="black"/>
<rect id="Rectangle 2591" x="224.482" y="65.1724" width="14.4828" height="3.62069" fill="black"/>
<rect id="Rectangle 2589" x="220.862" y="57.931" width="21.7241" height="3.62069" fill="black"/>
<rect id="Rectangle 2590" x="220.862" y="61.5517" width="21.7241" height="3.62069" fill="black"/>
<rect id="Rectangle 2581" width="18.1034" height="3.62069" transform="matrix(1 0 0 -1 181.034 72.4138)" fill="black"/>
<rect id="Rectangle 2561" x="173.793" y="21.7241" width="32.5862" height="3.62069" fill="black"/>
<rect id="Rectangle 2582" width="32.5862" height="3.62069" transform="matrix(1 0 0 -1 173.793 68.7931)" fill="black"/>
<rect id="Rectangle 2562" x="170.172" y="25.3448" width="18.1034" height="3.62069" fill="black"/>
<rect id="Rectangle 2583" width="18.1034" height="3.62069" transform="matrix(1 0 0 -1 170.172 65.1724)" fill="black"/>
<rect id="Rectangle 2564" x="166.552" y="28.9655" width="18.1034" height="3.62069" fill="black"/>
<rect id="Rectangle 2584" width="18.1034" height="3.62069" transform="matrix(1 0 0 -1 166.552 61.5517)" fill="black"/>
<rect id="Rectangle 2567" x="162.931" y="36.2069" width="21.7241" height="3.62069" fill="black"/>
<rect id="Rectangle 2572" x="162.931" y="50.6897" width="21.7241" height="3.62069" fill="black"/>
<rect id="Rectangle 2576" x="195.518" y="50.6897" width="21.7241" height="3.62069" fill="black"/>
<rect id="Rectangle 2569" x="162.931" y="39.8276" width="10.8621" height="3.62069" fill="black"/>
<rect id="Rectangle 2577" width="10.8621" height="3.62069" transform="matrix(-1 0 0 1 217.242 39.8276)" fill="black"/>
<rect id="Rectangle 2571" x="162.931" y="47.069" width="10.8621" height="3.62069" fill="black"/>
<rect id="Rectangle 2578" width="10.8621" height="3.62069" transform="matrix(-1 0 0 1 217.242 47.069)" fill="black"/>
<rect id="Rectangle 2570" x="162.931" y="43.4483" width="7.24138" height="3.62069" fill="black"/>
<rect id="Rectangle 2579" width="7.24138" height="3.62069" transform="matrix(-1 0 0 1 217.242 43.4483)" fill="black"/>
<rect id="Rectangle 2573" x="177.414" y="39.8276" width="3.62069" height="10.8621" fill="black"/>
<rect id="Rectangle 2574" x="199.138" y="39.8276" width="3.62069" height="10.8621" fill="black"/>
<rect id="Rectangle 2575" x="184.655" y="39.8276" width="10.8621" height="10.8621" fill="black"/>
<rect id="Rectangle 2568" x="195.518" y="36.2069" width="21.7241" height="3.62069" fill="black"/>
<rect id="Rectangle 2566" x="166.552" y="32.5862" width="47.069" height="3.62069" fill="black"/>
<rect id="Rectangle 2580" x="166.552" y="54.3103" width="47.069" height="3.62069" fill="black"/>
<rect id="Rectangle 2565" x="195.518" y="28.9655" width="18.1034" height="3.62069" fill="black"/>
<rect id="Rectangle 2585" width="18.1034" height="3.62069" transform="matrix(1 0 0 -1 195.518 61.5517)" fill="black"/>
<rect id="Rectangle 2563" x="191.896" y="25.3448" width="18.1034" height="3.62069" fill="black"/>
<rect id="Rectangle 2586" x="191.896" y="61.5517" width="18.1034" height="3.62069" fill="black"/>
<rect id="Rectangle 2532" x="224.482" y="7.24138" width="3.62069" height="3.62069" fill="black"/>
<rect id="Rectangle 2533" x="228.104" y="10.8621" width="3.62069" height="3.62069" fill="black"/>
<rect id="Rectangle 2534" x="231.724" y="14.4828" width="3.62069" height="7.24138" fill="black"/>
<rect id="Rectangle 2711" x="238.966" y="25.3448" width="3.62069" height="3.62069" fill="black"/>
<rect id="Rectangle 2535" x="235.345" y="21.7241" width="3.62069" height="3.62069" fill="black"/>
<rect id="Rectangle 2712" x="242.586" y="28.9655" width="3.62069" height="3.62069" fill="black"/>
<rect id="Rectangle 2713" x="246.207" y="32.5862" width="3.62069" height="3.62069" fill="black"/>
<rect id="Rectangle 2716" x="249.828" y="36.2069" width="3.62069" height="61.5517" fill="black"/>
<rect id="Rectangle 2717" x="246.207" y="97.7586" width="3.62069" height="3.62069" fill="black"/>
</g>
</svg>
