<svg width="430" height="321" viewBox="0 0 430 321" fill="none" xmlns="http://www.w3.org/2000/svg">
<path d="M118.762 304.555C107.991 304.555 96.7705 304.555 86.0001 304.555V300.452H90.0953C90.0953 298.401 90.0953 294.298 90.0953 292.247H94.1905C94.1905 290.196 94.1905 286.093 94.1905 284.042H98.2858C98.2858 280.391 98.2858 275.386 98.2858 271.734C96.2382 271.734 92.1429 271.734 90.0953 271.734C90.0953 273.786 90.0953 277.888 90.0953 279.939H86.0001C86.0001 281.991 86.0001 286.093 86.0001 288.145H81.9048C81.9048 290.196 81.9048 294.298 81.9048 296.35H77.8096C77.8096 298.401 77.8096 302.504 77.8096 304.555H73.7144C73.7144 306.606 73.7144 310.709 73.7144 312.76C89.9725 312.76 106.599 312.76 122.857 312.76V308.657H126.952V304.555C124.905 304.555 120.81 304.555 118.762 304.555Z" fill="white"/>
<path d="M155.619 288.145V284.042H159.714C159.714 280.391 159.714 275.386 159.714 271.734C157.667 271.734 153.572 271.734 151.524 271.734C151.524 273.786 151.524 277.888 151.524 279.939H147.429C147.429 281.991 147.429 286.093 147.429 288.145H143.334C143.334 290.196 143.334 294.298 143.334 296.35H139.238C139.238 298.401 139.238 302.504 139.238 304.555H135.143C135.143 306.606 135.143 310.709 135.143 312.76C137.191 312.76 141.286 312.76 143.334 312.76V308.657H147.429C147.429 306.606 147.429 302.504 147.429 300.452H151.524C151.524 298.401 151.524 294.298 151.524 292.247H155.619V288.145Z" fill="white"/>
<path d="M286.667 284.042H290.762V279.939H294.857C294.857 277.888 294.857 273.786 294.857 271.734C275.855 271.734 256.526 271.734 237.524 271.734C237.524 273.786 237.524 277.888 237.524 279.939H233.429C233.429 281.991 233.429 286.093 233.429 288.145H229.334C229.334 290.196 229.334 294.298 229.334 296.35H225.238C225.238 298.401 225.238 302.504 225.238 304.555H221.143C221.143 306.606 221.143 310.709 221.143 312.76C223.191 312.76 227.286 312.76 229.334 312.76V308.657H233.429C233.429 306.606 233.429 302.504 233.429 300.452H237.524V296.35C251.038 296.35 264.962 296.35 278.476 296.35V292.247H282.572V288.145H286.667V284.042ZM278.476 284.042H274.381V288.145C263.611 288.145 252.39 288.145 241.619 288.145V284.042H245.714V279.939C256.485 279.939 267.706 279.939 278.476 279.939V284.042Z" fill="white"/>
<path d="M221.143 284.042H225.238V279.939H229.333C229.333 277.888 229.333 273.786 229.333 271.734C210.332 271.734 191.002 271.734 172 271.734C172 273.786 172 277.888 172 279.939H167.905C167.905 281.991 167.905 286.093 167.905 288.145H163.81C163.81 290.196 163.81 294.298 163.81 296.35H159.714C159.714 298.401 159.714 302.504 159.714 304.555H155.619C155.619 306.606 155.619 310.709 155.619 312.76C157.667 312.76 161.762 312.76 163.81 312.76V308.657H167.905C167.905 306.606 167.905 302.504 167.905 300.452H172V296.35C185.514 296.35 199.438 296.35 212.952 296.35V292.247H217.048V288.145H221.143V284.042ZM212.952 284.042H208.857V288.145C198.087 288.145 186.866 288.145 176.095 288.145V284.042H180.191V279.939C190.961 279.939 202.182 279.939 212.952 279.939V284.042Z" fill="white"/>
<path d="M356.286 279.939V275.837H360.381V271.734C341.379 271.734 322.049 271.734 303.047 271.734C303.047 273.786 303.047 277.888 303.047 279.939H298.952C298.952 281.991 298.952 286.093 298.952 288.145H294.857C294.857 290.196 294.857 294.298 294.857 296.35H290.762C290.762 298.401 290.762 302.504 290.762 304.555H286.667C286.667 306.606 286.667 310.709 286.667 312.76C304.317 312.76 322.254 312.76 339.905 312.76V308.657H344V304.555C329.093 304.555 313.859 304.555 298.952 304.555V300.452H303.047V296.35C315.21 296.35 327.742 296.35 339.905 296.35V292.247H344V288.145C331.837 288.145 319.306 288.145 307.143 288.145V284.042H311.238V279.939C326.145 279.939 341.379 279.939 356.286 279.939Z" fill="white"/>
<path d="M77.8095 279.939V275.837H81.9048V271.734C61.5105 271.734 40.8705 271.734 20.4762 271.734C20.4762 273.786 20.4762 277.888 20.4762 279.939H16.381C16.381 281.991 16.381 286.093 16.381 288.145H12.2857C12.2857 290.196 12.2857 294.298 12.2857 296.35H8.19048C8.19048 298.401 8.19048 302.504 8.19048 304.555H4.09524C4.09524 306.606 4.09524 310.709 4.09524 312.76H0C0 314.811 0 318.914 0 320.965C2.04762 320.965 6.14286 320.965 8.19048 320.965V316.863H12.2857C12.2857 314.811 12.2857 310.709 12.2857 308.657H16.381C16.381 306.606 16.381 302.504 16.381 300.452H20.4762V296.35C32.639 296.35 45.1705 296.35 57.3333 296.35V292.247H61.4286V288.145C49.2657 288.145 36.7343 288.145 24.5714 288.145V284.042H28.6667V279.939C44.9248 279.939 61.5514 279.939 77.8095 279.939Z" fill="white"/>
<path d="M425.905 271.734C406.903 271.734 387.573 271.734 368.571 271.734C368.571 273.786 368.571 277.888 368.571 279.939H364.476C364.476 281.991 364.476 286.093 364.476 288.145H360.381C360.381 290.196 360.381 294.298 360.381 296.35H356.286C356.286 298.401 356.286 302.504 356.286 304.555H352.19C352.19 306.606 352.19 310.709 352.19 312.76C354.238 312.76 358.333 312.76 360.381 312.76V308.657H364.476C364.476 306.606 364.476 302.504 364.476 300.452H368.571V296.35C377.949 296.35 387.86 296.35 397.238 296.35V300.452H401.333V304.555H405.429V308.657H409.524V312.76H413.619V316.863H417.714V320.965C419.762 320.965 423.857 320.965 425.905 320.965C425.905 318.914 425.905 314.811 425.905 312.76H421.809V308.657H417.714V304.555H413.619V300.452H409.524C409.524 298.401 409.524 294.298 409.524 292.247H413.619V288.145H417.714V284.042H421.809V279.939H425.905V275.837H430V271.734H425.905ZM409.524 284.042H405.429V288.145C394.658 288.145 383.437 288.145 372.667 288.145V284.042H376.762V279.939C387.532 279.939 398.753 279.939 409.524 279.939V284.042Z" fill="white"/>
<path d="M274.381 238.914H270.286V243.016H274.381V238.914Z" fill="white"/>
<path d="M266.19 238.914H262.095V243.016H266.19V238.914Z" fill="white"/>
<path d="M270.286 234.811H266.19V238.914H270.286V234.811Z" fill="white"/>
<path d="M262.095 234.811H258V238.914H262.095V234.811Z" fill="white"/>
<path d="M253.905 234.811H249.81V238.914H253.905V234.811Z" fill="white"/>
<path d="M258 230.709H253.905V234.811H258V230.709Z" fill="white"/>
<path d="M249.81 230.709H245.714V234.811H249.81V230.709Z" fill="white"/>
<path d="M245.714 226.606H241.619V230.709H245.714V226.606Z" fill="white"/>
<path d="M307.143 169.17C303.498 169.17 298.502 169.17 294.857 169.17V173.273C301.409 173.273 308.781 173.273 315.333 173.273V169.17C313.286 169.17 309.19 169.17 307.143 169.17Z" fill="white"/>
<path d="M184.286 169.17H180.19V173.273C182.238 173.273 186.333 173.273 188.381 173.273V169.17H184.286Z" fill="white"/>
<path d="M106.476 169.17H102.381V173.273H106.476V169.17Z" fill="white"/>
<path d="M98.2857 169.17H94.1904V173.273H98.2857V169.17Z" fill="white"/>
<path d="M90.0952 169.17H86V173.273H90.0952V169.17Z" fill="white"/>
<path d="M323.524 165.068H319.429V160.965C317.381 160.965 313.286 160.965 311.238 160.965V165.068H315.334V169.17C320.453 169.17 326.595 169.17 331.714 169.17V165.068C329.667 165.068 325.572 165.068 323.524 165.068Z" fill="white"/>
<path d="M180.19 165.068H176.095V169.17H180.19V165.068Z" fill="white"/>
<path d="M110.571 165.068H106.476V169.17H110.571V165.068Z" fill="white"/>
<path d="M102.381 165.068H98.2856V169.17H102.381V165.068Z" fill="white"/>
<path d="M94.1905 165.068H90.0952V169.17H94.1905V165.068Z" fill="white"/>
<path d="M86 165.068H81.9048V169.17H86V165.068Z" fill="white"/>
<path d="M335.81 160.965H331.714V165.068C335.359 165.068 340.355 165.068 344 165.068V160.965C341.952 160.965 337.857 160.965 335.81 160.965Z" fill="white"/>
<path d="M114.667 160.965H110.571V165.068H114.667V160.965Z" fill="white"/>
<path d="M106.476 160.965H102.381V165.068H106.476V160.965Z" fill="white"/>
<path d="M98.2857 160.965H94.1904V165.068H98.2857V160.965Z" fill="white"/>
<path d="M90.0952 160.965H86V165.068H90.0952V160.965Z" fill="white"/>
<path d="M81.9048 160.965H77.8096V165.068H81.9048V160.965Z" fill="white"/>
<path d="M344 156.863V160.965C346.048 160.965 350.143 160.965 352.19 160.965V156.863C350.143 156.863 346.048 156.863 344 156.863Z" fill="white"/>
<path d="M307.143 160.965H311.238V156.863C309.191 156.863 305.095 156.863 303.048 156.863V160.965H307.143Z" fill="white"/>
<path d="M110.571 156.863H106.476V160.965H110.571V156.863Z" fill="white"/>
<path d="M102.381 156.863H98.2856V160.965H102.381V156.863Z" fill="white"/>
<path d="M94.1905 156.863H90.0952V160.965H94.1905V156.863Z" fill="white"/>
<path d="M86 156.863H81.9048V160.965H86V156.863Z" fill="white"/>
<path d="M77.8096 156.863H73.7144V160.965H77.8096V156.863Z" fill="white"/>
<path d="M106.476 152.76H102.381V156.863H106.476V152.76Z" fill="white"/>
<path d="M98.2857 152.76H94.1904V156.863H98.2857V152.76Z" fill="white"/>
<path d="M90.0952 152.76H86V156.863H90.0952V152.76Z" fill="white"/>
<path d="M81.9048 152.76H77.8096V156.863H81.9048V152.76Z" fill="white"/>
<path d="M102.381 148.657H98.2856V152.76H102.381V148.657Z" fill="white"/>
<path d="M94.1905 148.657H90.0952V152.76H94.1905V148.657Z" fill="white"/>
<path d="M86 148.657H81.9048V152.76H86V148.657Z" fill="white"/>
<path d="M77.8096 148.657H73.7144V152.76H77.8096V148.657Z" fill="white"/>
<path d="M118.762 144.555C118.762 146.606 118.762 150.709 118.762 152.76H114.667V148.657H110.571V144.555H106.476C106.476 142.504 106.476 138.401 106.476 136.35H102.381V140.452H98.2856V144.555H102.381V148.657H106.476V152.76H110.571V156.863H114.667V160.965H118.762V165.068H122.857C122.857 161.416 122.857 156.411 122.857 152.76H126.952C126.952 150.709 126.952 146.606 126.952 144.555C124.905 144.555 120.809 144.555 118.762 144.555Z" fill="white"/>
<path d="M98.2857 144.555H94.1904V148.657H98.2857V144.555Z" fill="white"/>
<path d="M90.0952 144.555H86V148.657H90.0952V144.555Z" fill="white"/>
<path d="M81.9048 144.555H77.8096V148.657H81.9048V144.555Z" fill="white"/>
<path d="M118.762 140.452H114.667V144.555H118.762V140.452Z" fill="white"/>
<path d="M94.1905 140.452H90.0952V144.555H94.1905V140.452Z" fill="white"/>
<path d="M86 140.452H81.9048V144.555H86V140.452Z" fill="white"/>
<path d="M77.8096 140.452H73.7144V144.555H77.8096V140.452Z" fill="white"/>
<path d="M139.238 140.452V136.35C142.883 136.35 147.879 136.35 151.524 136.35V132.247C159.509 132.247 168.109 132.247 176.095 132.247V128.145H172C172 121.58 172 114.196 172 107.632H167.905C167.905 105.58 167.905 101.478 167.905 99.4266H163.809V95.3241C161.762 95.3241 157.666 95.3241 155.619 95.3241V91.2215C149.066 91.2215 141.695 91.2215 135.143 91.2215V95.3241C133.095 95.3241 129 95.3241 126.952 95.3241V99.4266H122.857C122.857 101.478 122.857 105.58 122.857 107.632H118.762C118.762 114.196 118.762 121.58 118.762 128.145H122.857C122.857 130.196 122.857 134.298 122.857 136.35H126.952C126.952 138.401 126.952 142.504 126.952 144.555H131.047V140.452C133.095 140.452 137.19 140.452 139.238 140.452ZM135.143 111.734V107.632C137.19 107.632 141.286 107.632 143.333 107.632C143.333 109.683 143.333 113.786 143.333 115.837C141.286 115.837 137.19 115.837 135.143 115.837V111.734Z" fill="white"/>
<path d="M98.2857 136.35H94.1904V140.452H98.2857V136.35Z" fill="white"/>
<path d="M90.0952 136.35H86V140.452H90.0952V136.35Z" fill="white"/>
<path d="M81.9048 136.35H77.8096V140.452H81.9048V136.35Z" fill="white"/>
<path d="M114.667 132.247H110.571C110.571 134.298 110.571 138.401 110.571 140.452H114.667C114.667 138.401 114.667 134.298 114.667 132.247Z" fill="white"/>
<path d="M98.2857 136.35H102.381C102.381 124.165 102.381 111.611 102.381 99.4266H98.2857C98.2857 108.822 98.2857 118.75 98.2857 128.145H94.1904V132.247H98.2857V136.35Z" fill="white"/>
<path d="M94.1905 132.247H90.0952V136.35H94.1905V132.247Z" fill="white"/>
<path d="M86 132.247H81.9048V136.35H86V132.247Z" fill="white"/>
<path d="M90.0952 128.145H86V132.247H90.0952V128.145Z" fill="white"/>
<path d="M192.476 124.042C192.476 116.042 192.476 107.427 192.476 99.4266H188.381C188.381 108.822 188.381 118.75 188.381 128.145C192.026 128.145 197.022 128.145 200.667 128.145V124.042C198.619 124.042 194.524 124.042 192.476 124.042Z" fill="white"/>
<path d="M110.571 124.042C110.571 117.478 110.571 110.093 110.571 103.529H106.476C106.476 112.924 106.476 122.852 106.476 132.247H110.571C110.571 130.196 110.571 126.093 110.571 124.042Z" fill="white"/>
<path d="M200.667 119.939V124.042C202.714 124.042 206.809 124.042 208.857 124.042V119.939C206.809 119.939 202.714 119.939 200.667 119.939Z" fill="white"/>
<path d="M208.857 115.837V119.939C210.905 119.939 215 119.939 217.047 119.939V115.837C215 115.837 210.905 115.837 208.857 115.837Z" fill="white"/>
<path d="M217.048 111.734V115.837C219.095 115.837 223.191 115.837 225.238 115.837V111.734C223.191 111.734 219.095 111.734 217.048 111.734Z" fill="white"/>
<path d="M225.238 107.632V111.734C227.286 111.734 231.381 111.734 233.429 111.734V107.632C231.381 107.632 227.286 107.632 225.238 107.632Z" fill="white"/>
<path d="M180.19 111.734C180.19 118.298 180.19 125.683 180.19 132.247H176.095V136.35C178.143 136.35 182.238 136.35 184.286 136.35C184.286 125.56 184.286 114.319 184.286 103.529H180.19C180.19 105.58 180.19 109.683 180.19 111.734Z" fill="white"/>
<path d="M237.524 103.529H233.429V107.632H237.524V103.529Z" fill="white"/>
<path d="M237.524 99.4266V103.529C239.572 103.529 243.667 103.529 245.714 103.529V99.4266C243.667 99.4266 239.572 99.4266 237.524 99.4266Z" fill="white"/>
<path d="M176.095 103.529H180.19C180.19 101.478 180.19 97.3753 180.19 95.3241H176.095C176.095 97.3753 176.095 101.478 176.095 103.529Z" fill="white"/>
<path d="M114.667 99.4266V95.3241H110.571C110.571 97.3753 110.571 101.478 110.571 103.529H114.667V99.4266Z" fill="white"/>
<path d="M249.81 95.3241H245.714V99.4266H249.81V95.3241Z" fill="white"/>
<path d="M106.476 95.3241V91.2215H102.381C102.381 93.2728 102.381 97.3753 102.381 99.4266H106.476V95.3241Z" fill="white"/>
<path d="M249.81 91.2215V95.3241C251.857 95.3241 255.952 95.3241 258 95.3241V91.2215C255.952 91.2215 251.857 91.2215 249.81 91.2215Z" fill="white"/>
<path d="M221.143 91.2215C219.095 91.2215 215 91.2215 212.952 91.2215V95.3241C218.071 95.3241 224.214 95.3241 229.333 95.3241V91.2215C227.285 91.2215 223.19 91.2215 221.143 91.2215Z" fill="white"/>
<path d="M188.381 91.2215H184.286C184.286 93.2728 184.286 97.3753 184.286 99.4266H188.381C188.381 97.3753 188.381 93.2728 188.381 91.2215Z" fill="white"/>
<path d="M176.095 91.2215H172V95.3241H176.095V91.2215Z" fill="white"/>
<path d="M118.762 91.2215H114.667V95.3241H118.762V91.2215Z" fill="white"/>
<path d="M262.095 87.1189H258V91.2215H262.095V87.1189Z" fill="white"/>
<path d="M229.333 87.1189V91.2215C231.381 91.2215 235.476 91.2215 237.524 91.2215V87.1189C235.476 87.1189 231.381 87.1189 229.333 87.1189Z" fill="white"/>
<path d="M212.952 87.1189H208.857V91.2215H212.952V87.1189Z" fill="white"/>
<path d="M184.286 87.1189H180.19V91.2215H184.286V87.1189Z" fill="white"/>
<path d="M172 87.1189H167.905V91.2215H172V87.1189Z" fill="white"/>
<path d="M122.857 87.1189H118.762V91.2215H122.857V87.1189Z" fill="white"/>
<path d="M110.571 87.1189H106.476V91.2215H110.571V87.1189Z" fill="white"/>
<path d="M262.095 83.0164V87.1189C264.143 87.1189 268.238 87.1189 270.286 87.1189V83.0164C268.238 83.0164 264.143 83.0164 262.095 83.0164Z" fill="white"/>
<path d="M237.524 83.0164V87.1189C239.572 87.1189 243.667 87.1189 245.714 87.1189V83.0164C243.667 83.0164 239.572 83.0164 237.524 83.0164Z" fill="white"/>
<path d="M208.857 83.0164H204.762V87.1189H208.857V83.0164Z" fill="white"/>
<path d="M180.19 83.0164H176.095V87.1189H180.19V83.0164Z" fill="white"/>
<path d="M163.81 87.1189H167.905V83.0164C165.857 83.0164 161.762 83.0164 159.714 83.0164V87.1189H163.81Z" fill="white"/>
<path d="M131.047 87.1189V83.0164C129 83.0164 124.905 83.0164 122.857 83.0164V87.1189C124.905 87.1189 129 87.1189 131.047 87.1189Z" fill="white"/>
<path d="M114.667 83.0164H110.571V87.1189H114.667V83.0164Z" fill="white"/>
<path d="M274.381 78.9138H270.286V83.0164H274.381V78.9138Z" fill="white"/>
<path d="M249.81 78.9138H245.714V83.0164H249.81V78.9138Z" fill="white"/>
<path d="M139.238 83.0164C145.791 83.0164 153.162 83.0164 159.715 83.0164V78.9138C150.336 78.9138 140.426 78.9138 131.048 78.9138V83.0164C133.095 83.0164 137.191 83.0164 139.238 83.0164Z" fill="white"/>
<path d="M118.762 78.9138H114.667V83.0164H118.762V78.9138Z" fill="white"/>
<path d="M249.81 74.8112V78.9138C251.857 78.9138 255.952 78.9138 258 78.9138V74.8112C255.952 74.8112 251.857 74.8112 249.81 74.8112Z" fill="white"/>
<path d="M233.429 74.8112H229.333V78.9138H233.429V74.8112Z" fill="white"/>
<path d="M204.762 74.8112V70.7087H200.667C200.667 74.36 200.667 79.3651 200.667 83.0164H204.762C204.762 80.9651 204.762 76.8625 204.762 74.8112Z" fill="white"/>
<path d="M126.952 78.9138V74.8112C124.905 74.8112 120.809 74.8112 118.762 74.8112V78.9138C120.809 78.9138 124.905 78.9138 126.952 78.9138Z" fill="white"/>
<path d="M262.095 70.7087H258V74.8112H262.095V70.7087Z" fill="white"/>
<path d="M229.334 70.7087H225.238V74.8112H229.334V70.7087Z" fill="white"/>
<path d="M135.143 74.8112C144.521 74.8112 154.431 74.8112 163.809 74.8112V78.9138C165.857 78.9138 169.952 78.9138 172 78.9138V83.0164H176.095V78.9138H180.19C180.19 76.8625 180.19 72.76 180.19 70.7087H176.095V74.8112H172V70.7087H167.905V66.6061H163.809V70.7087C151.646 70.7087 139.115 70.7087 126.952 70.7087V74.8112C129 74.8112 133.095 74.8112 135.143 74.8112Z" fill="white"/>
<path d="M245.714 66.6061H241.619V70.7087H245.714V66.6061Z" fill="white"/>
<path d="M225.238 66.6061H221.143V70.7087H225.238V66.6061Z" fill="white"/>
<path d="M208.857 66.6061V62.5035H204.762C204.762 64.5548 204.762 68.6574 204.762 70.7087H208.857V66.6061Z" fill="white"/>
<path d="M184.286 66.6061V62.5035H188.381C188.381 60.4523 188.381 56.3497 188.381 54.2984H184.286V58.401H180.19V62.5035H176.095V66.6061H180.19V70.7087H184.286V66.6061Z" fill="white"/>
<path d="M176.095 66.6061H172V70.7087H176.095V66.6061Z" fill="white"/>
<path d="M241.619 62.5035H237.524V66.6061H241.619V62.5035Z" fill="white"/>
<path d="M172 62.5035H167.905V66.6061H172V62.5035Z" fill="white"/>
<path d="M258 58.401H253.905V62.5036H258V58.401Z" fill="white"/>
<path d="M237.524 58.401H233.429V62.5036H237.524V58.401Z" fill="white"/>
<path d="M212.952 58.401H208.857V62.5036H212.952V58.401Z" fill="white"/>
<path d="M176.095 58.401H172V62.5036H176.095V58.401Z" fill="white"/>
<path d="M253.905 54.2984H249.81V58.401H253.905V54.2984Z" fill="white"/>
<path d="M233.429 54.2984H229.333V58.401H233.429V54.2984Z" fill="white"/>
<path d="M217.047 54.2984H212.952V58.401H217.047V54.2984Z" fill="white"/>
<path d="M180.19 54.2984H176.095V58.401H180.19V54.2984Z" fill="white"/>
<path d="M172 54.2984H167.905V58.401H172V54.2984Z" fill="white"/>
<path d="M249.81 50.1959H245.714V54.2984H249.81V50.1959Z" fill="white"/>
<path d="M221.143 50.1959H217.048V54.2984H221.143V50.1959Z" fill="white"/>
<path d="M192.476 50.1959H188.381V54.2984H192.476V50.1959Z" fill="white"/>
<path d="M184.286 50.1959H180.19V54.2984H184.286V50.1959Z" fill="white"/>
<path d="M176.095 50.1959H172V54.2984H176.095V50.1959Z" fill="white"/>
<path d="M368.571 50.1959V54.2984H372.667C372.667 56.3497 372.667 60.4523 372.667 62.5035C374.714 62.5035 378.809 62.5035 380.857 62.5035C380.857 58.8523 380.857 53.8471 380.857 50.1959H376.762V46.0933H372.667V41.9907C369.022 41.9907 364.026 41.9907 360.381 41.9907C360.381 44.042 360.381 48.1446 360.381 50.1959C362.428 50.1959 366.524 50.1959 368.571 50.1959Z" fill="white"/>
<path d="M245.714 46.0933H241.619V50.1959H245.714V46.0933Z" fill="white"/>
<path d="M225.238 46.0933H221.143V50.1959H225.238V46.0933Z" fill="white"/>
<path d="M188.381 46.0933H184.286V50.1959H188.381V46.0933Z" fill="white"/>
<path d="M180.19 46.0933H176.095V50.1959H180.19V46.0933Z" fill="white"/>
<path d="M229.334 41.9907H225.238V46.0933H229.334V41.9907Z" fill="white"/>
<path d="M192.476 46.0933V50.1959H196.571V46.0933H200.667V41.9907H196.571V37.8882H192.476V41.9907H188.381V46.0933H192.476Z" fill="white"/>
<path d="M184.286 41.9907H188.381V37.8882C184.736 37.8882 179.74 37.8882 176.095 37.8882V41.9907H180.19V46.0933H184.286V41.9907Z" fill="white"/>
<path d="M233.429 37.8882H229.333V41.9907H233.429V37.8882Z" fill="white"/>
<path d="M204.762 37.8882H200.667V41.9907H204.762V37.8882Z" fill="white"/>
<path d="M208.857 33.7856H204.762V37.8882H208.857V33.7856Z" fill="white"/>
<path d="M200.667 33.7856H196.571V37.8882H200.667V33.7856Z" fill="white"/>
<path d="M172 33.7856C169.952 33.7856 165.857 33.7856 163.81 33.7856V37.8882C167.454 37.8882 172.451 37.8882 176.095 37.8882V33.7856H172Z" fill="white"/>
<path d="M212.952 29.683H208.857V33.7856H212.952V29.683Z" fill="white"/>
<path d="M204.762 29.683H200.667V33.7856H204.762V29.683Z" fill="white"/>
<path d="M159.714 29.683C150.336 29.683 140.426 29.683 131.048 29.683V25.5805C136.167 25.5805 142.31 25.5805 147.429 25.5805V21.4779C165.079 21.4779 183.016 21.4779 200.667 21.4779V25.5805H204.762V29.683H208.857V25.5805H212.952V29.683C219.505 29.683 226.876 29.683 233.429 29.683C233.429 31.7343 233.429 35.8369 233.429 37.8882C238.548 37.8882 244.691 37.8882 249.81 37.8882V41.9907H253.905V46.0933H258V50.1959H262.095V54.2984H266.191C266.191 57.9497 266.191 62.9548 266.191 66.6061H262.095V70.7087C265.74 70.7087 270.736 70.7087 274.381 70.7087C274.381 72.76 274.381 76.8625 274.381 78.9138C276.429 78.9138 280.524 78.9138 282.572 78.9138V74.8112C284.619 74.8112 288.714 74.8112 290.762 74.8112V70.7087C292.81 70.7087 296.905 70.7087 298.952 70.7087V66.6061C301 66.6061 305.095 66.6061 307.143 66.6061V62.5035C316.521 62.5035 326.432 62.5035 335.81 62.5035V66.6061C339.454 66.6061 344.451 66.6061 348.095 66.6061V70.7087H352.191V74.8112C347.072 74.8112 340.929 74.8112 335.81 74.8112V78.9138C332.165 78.9138 327.169 78.9138 323.524 78.9138V83.0164C321.476 83.0164 317.381 83.0164 315.333 83.0164V87.1189C313.286 87.1189 309.191 87.1189 307.143 87.1189V91.2215H303.048V95.3241H298.952V99.4266H294.857V103.529H290.762V107.632H286.667V111.734H282.572V115.837H278.476V119.939H274.381V124.042H270.286V128.145H266.191V132.247H262.095V136.35H258V140.452H253.905V144.555H249.81V148.657H245.714V152.76H241.619V156.863H237.524V160.965C235.476 160.965 231.381 160.965 229.333 160.965V165.068C227.286 165.068 223.191 165.068 221.143 165.068V169.17C217.498 169.17 212.502 169.17 208.857 169.17V173.273C202.305 173.273 194.933 173.273 188.381 173.273V177.375C223.805 177.375 259.433 177.375 294.857 177.375V173.273C278.599 173.273 261.972 173.273 245.714 173.273C245.714 171.221 245.714 167.119 245.714 165.068H249.81V160.965H253.905V156.863H258V152.76C267.378 152.76 277.289 152.76 286.667 152.76V156.863C291.786 156.863 297.929 156.863 303.048 156.863V152.76C319.306 152.76 335.932 152.76 352.191 152.76V156.863C354.238 156.863 358.333 156.863 360.381 156.863C360.381 160.514 360.381 165.519 360.381 169.17H356.286V173.273H352.191V177.375H348.095V181.478H344V185.58C341.952 185.58 337.857 185.58 335.81 185.58V189.683C332.165 189.683 327.169 189.683 323.524 189.683V193.786C319.879 193.786 314.883 193.786 311.238 193.786V197.888C307.593 197.888 302.597 197.888 298.952 197.888V201.991C293.833 201.991 287.691 201.991 282.572 201.991V206.093C277.452 206.093 271.31 206.093 266.191 206.093V210.196C262.546 210.196 257.55 210.196 253.905 210.196V214.298C251.857 214.298 247.762 214.298 245.714 214.298V218.401C243.667 218.401 239.572 218.401 237.524 218.401C237.524 220.452 237.524 224.555 237.524 226.606H241.619V222.504H245.714V226.606H249.81V230.709H253.905V226.606H258V230.709H262.095V234.811H266.191V230.709H270.286V234.811H274.381V238.914H278.476V243.016C280.524 243.016 284.619 243.016 286.667 243.016C286.667 239.365 286.667 234.36 286.667 230.709H282.572C282.572 225.58 282.572 219.427 282.572 214.298H286.667C286.667 212.247 286.667 208.145 286.667 206.093C291.786 206.093 297.929 206.093 303.048 206.093V201.991C306.692 201.991 311.689 201.991 315.333 201.991V197.888C318.978 197.888 323.974 197.888 327.619 197.888V193.786C331.264 193.786 336.26 193.786 339.905 193.786V189.683C341.952 189.683 346.048 189.683 348.095 189.683V185.58H352.191V181.478H356.286V177.375H360.381V173.273H364.476C364.476 166.709 364.476 159.324 364.476 152.76H360.381V148.657C337.243 148.657 313.9 148.657 290.762 148.657V144.555H294.857V140.452H298.952V136.35H303.048V132.247H307.143V128.145H311.238V124.042H315.333V119.939H319.429V115.837H323.524V111.734H327.619V107.632H331.714V103.529H335.81V99.4266H339.905V95.3241H344V91.2215H348.095V87.1189H352.191V83.0164H356.286C356.286 77.8882 356.286 71.7343 356.286 66.6061H352.191V62.5035C348.546 62.5035 343.55 62.5035 339.905 62.5035V58.401C327.742 58.401 315.211 58.401 303.048 58.401V62.5035C301 62.5035 296.905 62.5035 294.857 62.5035V66.6061C292.81 66.6061 288.714 66.6061 286.667 66.6061V70.7087C284.619 70.7087 280.524 70.7087 278.476 70.7087V66.6061H274.381C274.381 64.5548 274.381 60.4523 274.381 58.401H270.286C270.286 56.3497 270.286 52.2471 270.286 50.1959H266.191V46.0933H262.095V41.9907H258V37.8882H253.905V33.7856C251.857 33.7856 247.762 33.7856 245.714 33.7856V29.683C243.667 29.683 239.572 29.683 237.524 29.683V25.5805C233.879 25.5805 228.883 25.5805 225.238 25.5805V21.4779C218.686 21.4779 211.314 21.4779 204.762 21.4779V17.3753C184.368 17.3753 163.728 17.3753 143.333 17.3753V21.4779C138.214 21.4779 132.072 21.4779 126.952 21.4779V25.5805C123.308 25.5805 118.312 25.5805 114.667 25.5805V29.683H110.572V33.7856C108.524 33.7856 104.429 33.7856 102.381 33.7856V37.8882C100.333 37.8882 96.2382 37.8882 94.1906 37.8882V41.9907H90.0953V46.0933H86.0001V50.1959H81.9049V54.2984H77.8096V58.401H73.7144C73.7144 60.4523 73.7144 64.5548 73.7144 66.6061H69.6191C69.6191 70.2574 69.6191 75.2625 69.6191 78.9138H73.7144C73.7144 76.8625 73.7144 72.76 73.7144 70.7087H77.8096C77.8096 68.6574 77.8096 64.5548 77.8096 62.5035H81.9049V58.401H86.0001V54.2984H90.0953V50.1959H94.1906V46.0933H98.2858V41.9907C100.333 41.9907 104.429 41.9907 106.476 41.9907V37.8882C108.524 37.8882 112.619 37.8882 114.667 37.8882V33.7856C130.925 33.7856 147.552 33.7856 163.81 33.7856V29.683H159.714Z" fill="white"/>
<path d="M368.571 29.683V33.7856C370.619 33.7856 374.714 33.7856 376.762 33.7856V37.8882H380.857V41.9907H384.952V46.0933H389.048C389.048 48.1446 389.048 52.2471 389.048 54.2984H393.143C393.143 56.3497 393.143 60.4523 393.143 62.5035C395.19 62.5035 399.286 62.5035 401.333 62.5035C401.333 58.8523 401.333 53.8471 401.333 50.1959H397.238C397.238 48.1446 397.238 44.042 397.238 41.9907H393.143V37.8882H389.048V33.7856H384.952V29.683H380.857V25.5805C378.809 25.5805 374.714 25.5805 372.667 25.5805V21.4779C369.022 21.4779 364.026 21.4779 360.381 21.4779C360.381 23.5292 360.381 27.6318 360.381 29.683C362.428 29.683 366.524 29.683 368.571 29.683Z" fill="white"/>
<path d="M368.571 9.17022H372.667V13.2728C374.714 13.2728 378.809 13.2728 380.857 13.2728V17.3753C382.905 17.3753 387 17.3753 389.048 17.3753V21.4779H393.143V25.5805H397.238V29.683H401.333V33.7856H405.428C405.428 35.8369 405.428 39.9394 405.428 41.9907H409.524C409.524 44.042 409.524 48.1446 409.524 50.1959H413.619C413.619 53.8471 413.619 58.8523 413.619 62.5035C415.667 62.5035 419.762 62.5035 421.809 62.5035C421.809 57.3753 421.809 51.2215 421.809 46.0933H417.714C417.714 44.042 417.714 39.9394 417.714 37.8882H413.619C413.619 35.8369 413.619 31.7343 413.619 29.683H409.524V25.5805H405.428V21.4779H401.333V17.3753H397.238V13.2728H393.143V9.17022C391.095 9.17022 387 9.17022 384.952 9.17022V5.06765C382.905 5.06765 378.809 5.06765 376.762 5.06765V0.965088C371.643 0.965088 365.5 0.965088 360.381 0.965088C360.381 3.01637 360.381 7.11893 360.381 9.17022C362.428 9.17022 366.524 9.17022 368.571 9.17022Z" fill="white"/>
</svg>
