<svg width="62" height="56" viewBox="0 0 62 56" fill="none" xmlns="http://www.w3.org/2000/svg">
<g id="Group">
<path id="Compound Path" d="M58.6116 21.5048C58.003 21.5027 57.4071 21.6787 56.8974 22.0112C56.3876 22.3436 55.9863 22.818 55.7429 23.3758H42.1474C41.9381 22.5093 41.6239 21.6716 41.212 20.8812H50.7537C51.0403 21.5378 51.5442 22.0757 52.1807 22.4044C52.8171 22.7331 53.5474 22.8327 54.2487 22.6863C54.95 22.54 55.5795 22.1566 56.0313 21.6007C56.4832 21.0448 56.7298 20.3503 56.7298 19.6339C56.7298 18.9175 56.4832 18.223 56.0313 17.6671C55.5795 17.1112 54.95 16.7278 54.2487 16.5815C53.5474 16.4351 52.8171 16.5347 52.1807 16.8634C51.5442 17.1922 51.0403 17.73 50.7537 18.3866H39.5905V6.84921H47.3237C47.6102 7.50579 48.1141 8.04367 48.7506 8.37242C49.3871 8.70117 50.1174 8.80073 50.8187 8.65437C51.5199 8.50801 52.1494 8.12464 52.6013 7.56874C53.0531 7.01284 53.2998 6.31831 53.2998 5.60193C53.2998 4.88555 53.0531 4.19101 52.6013 3.63511C52.1494 3.07921 51.5199 2.69585 50.8187 2.54948C50.1174 2.40312 49.3871 2.50268 48.7506 2.83143C48.1141 3.16018 47.6102 3.69807 47.3237 4.35464H38.3432C38.0124 4.35464 37.6952 4.48605 37.4612 4.71996C37.2273 4.95387 37.0959 5.27112 37.0959 5.60193V16.5157C36.1267 15.9424 35.0749 15.5217 33.9777 15.2684V10.9029C34.6343 10.6163 35.1722 10.1125 35.5009 9.47596C35.8297 8.83947 35.9292 8.10919 35.7829 7.40792C35.6365 6.70665 35.2531 6.07716 34.6972 5.62531C34.1413 5.17345 33.4468 4.92678 32.7304 4.92678C32.014 4.92678 31.3195 5.17345 30.7636 5.62531C30.2077 6.07716 29.8243 6.70665 29.678 7.40792C29.5316 8.10919 29.6312 8.83947 29.9599 9.47596C30.2887 10.1125 30.8266 10.6163 31.4831 10.9029V14.9566H31.4208C30.601 14.9704 29.7853 15.075 28.9886 15.2684V5.97611C29.6451 5.68956 30.183 5.18567 30.5118 4.54918C30.8405 3.91268 30.9401 3.18241 30.7937 2.48114C30.6474 1.77987 30.264 1.15038 29.7081 0.698524C29.1522 0.246667 28.4577 0 27.7413 0C27.0249 0 26.3304 0.246667 25.7745 0.698524C25.2186 1.15038 24.8352 1.77987 24.6888 2.48114C24.5425 3.18241 24.642 3.91268 24.9708 4.54918C25.2995 5.18567 25.8374 5.68956 26.494 5.97611V16.1415C25.5887 16.5849 24.7492 17.1515 23.9994 17.8253V10.9653C24.656 10.6787 25.1939 10.1748 25.5226 9.53833C25.8514 8.90183 25.9509 8.17155 25.8046 7.47028C25.6582 6.76902 25.2748 6.13953 24.7189 5.68767C24.163 5.23582 23.4685 4.98915 22.7521 4.98915C22.0357 4.98915 21.3412 5.23582 20.7853 5.68767C20.2294 6.13953 19.846 6.76902 19.6997 7.47028C19.5533 8.17155 19.6529 8.90183 19.9816 9.53833C20.3104 10.1748 20.8483 10.6787 21.5048 10.9653V19.3221H8.0965V11.5889C8.75307 11.3024 9.29096 10.7985 9.61971 10.162C9.94845 9.52548 10.048 8.7952 9.90166 8.09393C9.75529 7.39266 9.37193 6.76317 8.81603 6.31132C8.26013 5.85946 7.56559 5.61279 6.84921 5.61279C6.13283 5.61279 5.4383 5.85946 4.8824 6.31132C4.3265 6.76317 3.94313 7.39266 3.79677 8.09393C3.65041 8.7952 3.74997 9.52548 4.07872 10.162C4.40747 10.7985 4.94535 11.3024 5.60193 11.5889V20.5694C5.60193 20.9002 5.73334 21.2174 5.96725 21.4513C6.20116 21.6852 6.51841 21.8167 6.84921 21.8167H18.7608C17.185 22.4677 15.8237 23.5481 14.8319 24.9349H10.9653C10.6787 24.2783 10.1748 23.7404 9.53833 23.4117C8.90183 23.0829 8.17155 22.9834 7.47028 23.1297C6.76902 23.2761 6.13953 23.6594 5.68767 24.2153C5.23582 24.7712 4.98915 25.4658 4.98915 26.1822C4.98915 26.8985 5.23582 27.5931 5.68767 28.149C6.13953 28.7049 6.76902 29.0882 7.47028 29.2346C8.17155 29.381 8.90183 29.2814 9.53833 28.9527C10.1748 28.6239 10.6787 28.086 10.9653 27.4295H13.5846C13.3228 28.2364 13.1758 29.0761 13.148 29.924H5.97611C5.68956 29.2675 5.18567 28.7296 4.54918 28.4008C3.91268 28.0721 3.1824 27.9725 2.48114 28.1189C1.77987 28.2652 1.15038 28.6486 0.698523 29.2045C0.246667 29.7604 0 30.4549 0 31.1713C0 31.8877 0.246667 32.5822 0.698523 33.1381C1.15038 33.694 1.77987 34.0774 2.48114 34.2238C3.1824 34.3701 3.91268 34.2706 4.54918 33.9418C5.18567 33.6131 5.68956 33.0752 5.97611 32.4186H13.4598C13.685 33.299 14.0425 34.1401 14.52 34.9132H10.9653C10.6787 34.2566 10.1748 33.7187 9.53833 33.39C8.90183 33.0612 8.17155 32.9617 7.47028 33.108C6.76902 33.2544 6.13953 33.6377 5.68767 34.1936C5.23582 34.7495 4.98915 35.4441 4.98915 36.1605C4.98915 36.8768 5.23582 37.5714 5.68767 38.1273C6.13953 38.6832 6.76902 39.0665 7.47028 39.2129C8.17155 39.3593 8.90183 39.2597 9.53833 38.931C10.1748 38.6022 10.6787 38.0643 10.9653 37.4077H16.7651C18.1384 38.4536 19.784 39.0815 21.5048 39.2163V47.386H13.7717C13.4851 46.7295 12.9812 46.1916 12.3447 45.8628C11.7082 45.5341 10.978 45.4345 10.2767 45.5809C9.57541 45.7273 8.94592 46.1106 8.49407 46.6665C8.04221 47.2224 7.79554 47.917 7.79554 48.6333C7.79554 49.3497 8.04221 50.0442 8.49407 50.6001C8.94592 51.156 9.57541 51.5394 10.2767 51.6858C10.978 51.8321 11.7082 51.7326 12.3447 51.4038C12.9812 51.0751 13.4851 50.5372 13.7717 49.8806H22.7521C23.0829 49.8806 23.4002 49.7492 23.6341 49.5153C23.868 49.2814 23.9994 48.9641 23.9994 48.6333V39.2787H27.1176V44.5796C26.4611 44.8662 25.9232 45.3701 25.5944 46.0066C25.2657 46.6431 25.1661 47.3734 25.3125 48.0746C25.4588 48.7759 25.8422 49.4054 26.3981 49.8572C26.954 50.3091 27.6485 50.5558 28.3649 50.5558C29.0813 50.5558 29.7758 50.3091 30.3317 49.8572C30.8876 49.4054 31.271 48.7759 31.4174 48.0746C31.5637 47.3734 31.4642 46.6431 31.1354 46.0066C30.8067 45.3701 30.2688 44.8662 29.6122 44.5796V39.2787H32.1068V49.5064C31.4502 49.793 30.9123 50.2969 30.5836 50.9334C30.2548 51.5699 30.1553 52.3001 30.3016 53.0014C30.448 53.7027 30.8313 54.3322 31.3872 54.784C31.9432 55.2359 32.6377 55.4825 33.3541 55.4825C34.0704 55.4825 34.765 55.2359 35.3209 54.784C35.8768 54.3322 36.2601 53.7027 36.4065 53.0014C36.5529 52.3001 36.4533 51.5699 36.1246 50.9334C35.7958 50.2969 35.2579 49.793 34.6014 49.5064V39.2787H37.0959V44.5796C36.4394 44.8662 35.9015 45.3701 35.5727 46.0066C35.244 46.6431 35.1444 47.3734 35.2908 48.0746C35.4371 48.7759 35.8205 49.4054 36.3764 49.8572C36.9323 50.3091 37.6268 50.5558 38.3432 50.5558C39.0596 50.5558 39.7541 50.3091 40.31 49.8572C40.8659 49.4054 41.2493 48.7759 41.3957 48.0746C41.542 47.3734 41.4425 46.6431 41.1137 46.0066C40.785 45.3701 40.2471 44.8662 39.5905 44.5796V39.2787H41.212C42.3177 39.272 43.4078 39.0163 44.4011 38.5304C45.3944 38.0445 46.2654 37.3411 46.9495 36.4723H54.8698V44.2055C54.2132 44.492 53.6753 44.9959 53.3466 45.6324C53.0178 46.2689 52.9182 46.9992 53.0646 47.7004C53.211 48.4017 53.5943 49.0312 54.1502 49.4831C54.7061 49.9349 55.4007 50.1816 56.1171 50.1816C56.8334 50.1816 57.528 49.9349 58.0839 49.4831C58.6398 49.0312 59.0231 48.4017 59.1695 47.7004C59.3159 46.9992 59.2163 46.2689 58.8875 45.6324C58.5588 44.9959 58.0209 44.492 57.3643 44.2055V35.225C57.3643 34.8942 57.2329 34.5769 56.999 34.343C56.7651 34.1091 56.4479 33.9777 56.1171 33.9777H48.2591C48.5728 32.9697 48.658 31.9045 48.5086 30.8595H50.7537C51.0403 31.5161 51.5442 32.0539 52.1807 32.3827C52.8171 32.7114 53.5474 32.811 54.2487 32.6646C54.95 32.5183 55.5795 32.1349 56.0313 31.579C56.4832 31.0231 56.7298 30.3286 56.7298 29.6122C56.7298 28.8958 56.4832 28.2013 56.0313 27.6454C55.5795 27.0895 54.95 26.7061 54.2487 26.5598C53.5474 26.4134 52.8171 26.513 52.1807 26.8417C51.5442 27.1705 51.0403 27.7083 50.7537 28.3649H47.6979C47.1677 27.3795 46.4215 26.5267 45.5151 25.8703H55.7429C55.9676 26.3852 56.3271 26.8297 56.7836 27.1571C57.2401 27.4844 57.7766 27.6824 58.3363 27.73C58.8959 27.7777 59.4581 27.6732 59.9634 27.4278C60.4686 27.1823 60.8982 26.8049 61.2067 26.3355C61.5151 25.8661 61.6911 25.322 61.7159 24.7608C61.7407 24.1997 61.6135 23.6422 61.3477 23.1474C61.0819 22.6525 60.6873 22.2387 60.2057 21.9496C59.7241 21.6605 59.1733 21.5068 58.6116 21.5048ZM50.1924 4.97828C50.3158 4.97828 50.4364 5.01486 50.5389 5.08338C50.6415 5.15191 50.7214 5.24931 50.7686 5.36327C50.8158 5.47722 50.8282 5.60262 50.8041 5.72359C50.78 5.84457 50.7206 5.95569 50.6334 6.04291C50.5462 6.13013 50.4351 6.18952 50.3141 6.21359C50.1931 6.23765 50.0677 6.2253 49.9538 6.1781C49.8398 6.1309 49.7424 6.05096 49.6739 5.9484C49.6054 5.84585 49.5688 5.72527 49.5688 5.60193C49.5688 5.43653 49.6345 5.2779 49.7515 5.16094C49.8684 5.04399 50.027 4.97828 50.1924 4.97828ZM32.7304 7.47286C32.8538 7.47286 32.9743 7.50943 33.0769 7.57796C33.1795 7.64649 33.2594 7.74389 33.3066 7.85784C33.3538 7.9718 33.3661 8.09719 33.3421 8.21817C33.318 8.33914 33.2586 8.45026 33.1714 8.53748C33.0842 8.6247 32.9731 8.6841 32.8521 8.70816C32.7311 8.73222 32.6057 8.71987 32.4918 8.67267C32.3778 8.62547 32.2804 8.54554 32.2119 8.44298C32.1434 8.34042 32.1068 8.21985 32.1068 8.0965C32.1068 7.9311 32.1725 7.77247 32.2894 7.65552C32.4064 7.53856 32.565 7.47286 32.7304 7.47286ZM27.7413 2.48371C27.8646 2.48371 27.9852 2.52028 28.0877 2.58881C28.1903 2.65734 28.2702 2.75474 28.3174 2.86869C28.3646 2.98265 28.377 3.10804 28.3529 3.22902C28.3289 3.34999 28.2695 3.46112 28.1823 3.54833C28.095 3.63555 27.9839 3.69495 27.8629 3.71901C27.742 3.74308 27.6166 3.73073 27.5026 3.68352C27.3887 3.63632 27.2913 3.55639 27.2227 3.45383C27.1542 3.35127 27.1176 3.2307 27.1176 3.10735C27.1176 2.94195 27.1833 2.78332 27.3003 2.66637C27.4172 2.54941 27.5759 2.48371 27.7413 2.48371ZM6.84921 8.0965C6.97256 8.0965 7.09313 8.13308 7.19569 8.2016C7.29825 8.27013 7.37818 8.36753 7.42538 8.48149C7.47259 8.59544 7.48494 8.72084 7.46087 8.84181C7.43681 8.96279 7.37741 9.07391 7.29019 9.16113C7.20298 9.24835 7.09185 9.30774 6.97088 9.3318C6.8499 9.35587 6.72451 9.34352 6.61055 9.29632C6.4966 9.24911 6.3992 9.16918 6.33067 9.06662C6.26215 8.96406 6.22557 8.84349 6.22557 8.72014C6.22557 8.55474 6.29127 8.39612 6.40823 8.27916C6.52519 8.1622 6.68381 8.0965 6.84921 8.0965ZM8.0965 26.8058C7.97315 26.8058 7.85258 26.7692 7.75002 26.7007C7.64746 26.6322 7.56753 26.5348 7.52033 26.4208C7.47313 26.3069 7.46078 26.1815 7.48484 26.0605C7.5089 25.9395 7.5683 25.8284 7.65552 25.7412C7.74274 25.654 7.85386 25.5946 7.97483 25.5705C8.09581 25.5464 8.2212 25.5588 8.33516 25.606C8.44911 25.6532 8.54651 25.7331 8.61504 25.8357C8.68357 25.9382 8.72014 26.0588 8.72014 26.1822C8.72014 26.3476 8.65444 26.5062 8.53748 26.6231C8.42053 26.7401 8.2619 26.8058 8.0965 26.8058ZM10.9029 49.257C10.7796 49.257 10.659 49.2204 10.5564 49.1519C10.4539 49.0833 10.3739 48.9859 10.3267 48.872C10.2795 48.758 10.2672 48.6326 10.2912 48.5117C10.3153 48.3907 10.3747 48.2796 10.4619 48.1923C10.5491 48.1051 10.6603 48.0457 10.7812 48.0217C10.9022 47.9976 11.0276 48.01 11.1416 48.0572C11.2555 48.1044 11.3529 48.1843 11.4214 48.2869C11.49 48.3894 11.5265 48.51 11.5265 48.6333C11.5265 48.7987 11.4608 48.9574 11.3439 49.0743C11.2269 49.1913 11.0683 49.257 10.9029 49.257ZM28.3649 48.0097C28.2416 48.0097 28.121 47.9731 28.0184 47.9046C27.9159 47.8361 27.8359 47.7387 27.7887 47.6247C27.7415 47.5107 27.7292 47.3854 27.7533 47.2644C27.7773 47.1434 27.8367 47.0323 27.9239 46.9451C28.0112 46.8578 28.1223 46.7985 28.2432 46.7744C28.3642 46.7503 28.4896 46.7627 28.6036 46.8099C28.7175 46.8571 28.8149 46.937 28.8835 47.0396C28.952 47.1421 28.9886 47.2627 28.9886 47.386C28.9886 47.5514 28.9229 47.7101 28.8059 47.827C28.6889 47.944 28.5303 48.0097 28.3649 48.0097ZM33.3541 52.9988C33.2307 52.9988 33.1101 52.9623 33.0076 52.8937C32.905 52.8252 32.8251 52.7278 32.7779 52.6138C32.7307 52.4999 32.7183 52.3745 32.7424 52.2535C32.7665 52.1325 32.8259 52.0214 32.9131 51.9342C33.0003 51.847 33.1114 51.7876 33.2324 51.7635C33.3534 51.7395 33.4788 51.7518 33.5927 51.799C33.7067 51.8462 33.8041 51.9262 33.8726 52.0287C33.9411 52.1313 33.9777 52.2518 33.9777 52.3752C33.9777 52.5406 33.912 52.6992 33.795 52.8162C33.6781 52.9331 33.5195 52.9988 33.3541 52.9988ZM38.3432 48.0097C38.2199 48.0097 38.0993 47.9731 37.9967 47.9046C37.8942 47.8361 37.8142 47.7387 37.767 47.6247C37.7198 47.5107 37.7075 47.3854 37.7316 47.2644C37.7556 47.1434 37.815 47.0323 37.9022 46.9451C37.9894 46.8578 38.1006 46.7985 38.2215 46.7744C38.3425 46.7503 38.4679 46.7627 38.5819 46.8099C38.6958 46.8571 38.7932 46.937 38.8618 47.0396C38.9303 47.1421 38.9669 47.2627 38.9669 47.386C38.9669 47.5514 38.9011 47.7101 38.7842 47.827C38.6672 47.944 38.5086 48.0097 38.3432 48.0097ZM56.1171 47.6979C55.9937 47.6979 55.8731 47.6613 55.7706 47.5928C55.668 47.5242 55.5881 47.4268 55.5409 47.3129C55.4937 47.1989 55.4813 47.0735 55.5054 46.9526C55.5295 46.8316 55.5889 46.7205 55.6761 46.6332C55.7633 46.546 55.8744 46.4866 55.9954 46.4626C56.1164 46.4385 56.2418 46.4508 56.3557 46.4981C56.4697 46.5453 56.5671 46.6252 56.6356 46.7277C56.7041 46.8303 56.7407 46.9509 56.7407 47.0742C56.7407 47.2396 56.675 47.3983 56.558 47.5152C56.4411 47.6322 56.2825 47.6979 56.1171 47.6979ZM53.6225 28.9886C53.7458 28.9886 53.8664 29.0251 53.969 29.0937C54.0715 29.1622 54.1515 29.2596 54.1987 29.3735C54.2459 29.4875 54.2582 29.6129 54.2341 29.7339C54.2101 29.8548 54.1507 29.966 54.0635 30.0532C53.9762 30.1404 53.8651 30.1998 53.7441 30.2239C53.6232 30.2479 53.4978 30.2356 53.3838 30.1884C53.2699 30.1412 53.1725 30.0612 53.1039 29.9587C53.0354 29.8561 52.9988 29.7355 52.9988 29.6122C52.9988 29.4468 53.0645 29.2882 53.1815 29.1712C53.2985 29.0543 53.4571 28.9886 53.6225 28.9886ZM53.6225 19.0103C53.7458 19.0103 53.8664 19.0468 53.969 19.1154C54.0715 19.1839 54.1515 19.2813 54.1987 19.3952C54.2459 19.5092 54.2582 19.6346 54.2341 19.7556C54.2101 19.8765 54.1507 19.9877 54.0635 20.0749C53.9762 20.1621 53.8651 20.2215 53.7441 20.2456C53.6232 20.2696 53.4978 20.2573 53.3838 20.2101C53.2699 20.1629 53.1725 20.0829 53.1039 19.9804C53.0354 19.8778 52.9988 19.7573 52.9988 19.6339C52.9988 19.4685 53.0645 19.3099 53.1815 19.1929C53.2985 19.076 53.4571 19.0103 53.6225 19.0103ZM22.7521 7.47286C22.8755 7.47286 22.996 7.50943 23.0986 7.57796C23.2012 7.64649 23.2811 7.74389 23.3283 7.85784C23.3755 7.9718 23.3878 8.09719 23.3638 8.21817C23.3397 8.33914 23.2803 8.45026 23.1931 8.53748C23.1059 8.6247 22.9948 8.6841 22.8738 8.70816C22.7528 8.73222 22.6274 8.71987 22.5135 8.67267C22.3995 8.62547 22.3021 8.54554 22.2336 8.44298C22.1651 8.34042 22.1285 8.21985 22.1285 8.0965C22.1285 7.9311 22.1942 7.77247 22.3111 7.65552C22.4281 7.53856 22.5867 7.47286 22.7521 7.47286ZM3.10735 31.795C2.98401 31.795 2.86343 31.7584 2.76087 31.6899C2.65832 31.6213 2.57838 31.5239 2.53118 31.41C2.48398 31.296 2.47163 31.1706 2.49569 31.0496C2.51975 30.9287 2.57915 30.8175 2.66637 30.7303C2.75359 30.6431 2.86471 30.5837 2.98568 30.5597C3.10666 30.5356 3.23205 30.5479 3.34601 30.5951C3.45997 30.6423 3.55737 30.7223 3.62589 30.8248C3.69442 30.9274 3.73099 31.048 3.73099 31.1713C3.73099 31.3367 3.66529 31.4953 3.54833 31.6123C3.43138 31.7292 3.27275 31.795 3.10735 31.795ZM8.0965 36.7841C7.97315 36.7841 7.85258 36.7475 7.75002 36.679C7.64746 36.6105 7.56753 36.5131 7.52033 36.3991C7.47313 36.2852 7.46078 36.1598 7.48484 36.0388C7.5089 35.9178 7.5683 35.8067 7.65552 35.7195C7.74274 35.6323 7.85386 35.5729 7.97483 35.5488C8.09581 35.5247 8.2212 35.5371 8.33516 35.5843C8.44911 35.6315 8.54651 35.7114 8.61504 35.814C8.68357 35.9165 8.72014 36.0371 8.72014 36.1605C8.72014 36.3259 8.65444 36.4845 8.53748 36.6014C8.42053 36.7184 8.2619 36.7841 8.0965 36.7841ZM41.212 36.7841H22.1908C20.4459 36.7841 18.7724 36.0909 17.5385 34.857C16.3046 33.6231 15.6114 31.9496 15.6114 30.2047C15.6114 28.4597 16.3046 26.7862 17.5385 25.5523C18.7724 24.3184 20.4459 23.6252 22.1908 23.6252C22.4609 23.6606 22.7351 23.6066 22.9716 23.4714C23.2081 23.3363 23.3939 23.1275 23.5005 22.8769C24.1279 21.2898 25.2194 19.929 26.6324 18.9721C28.0455 18.0153 29.7143 17.5069 31.4208 17.5135C33.6291 17.5274 35.7476 18.3897 37.3379 19.922C38.9283 21.4543 39.8687 23.5393 39.9647 25.7456C39.9807 26.0655 40.1191 26.3669 40.3513 26.5875C40.5835 26.8081 40.8917 26.9309 41.212 26.9305C41.8549 26.9305 42.4915 27.0572 43.0854 27.3032C43.6794 27.5492 44.2191 27.9098 44.6737 28.3644C45.1283 28.819 45.4889 29.3587 45.7349 29.9527C45.9809 30.5466 46.1076 31.1832 46.1076 31.8261C46.1076 32.469 45.9809 33.1056 45.7349 33.6996C45.4889 34.2936 45.1283 34.8333 44.6737 35.2878C44.2191 35.7425 43.6794 36.1031 43.0854 36.3491C42.4915 36.5951 41.8549 36.7217 41.212 36.7217V36.7841ZM58.6116 25.2467C58.4883 25.2467 58.3677 25.2101 58.2651 25.1416C58.1626 25.0731 58.0827 24.9757 58.0355 24.8617C57.9883 24.7478 57.9759 24.6224 58 24.5014C58.024 24.3804 58.0834 24.2693 58.1706 24.1821C58.2579 24.0949 58.369 24.0355 58.49 24.0114C58.6109 23.9873 58.7363 23.9997 58.8503 24.0469C58.9642 24.0941 59.0616 24.174 59.1302 24.2766C59.1987 24.3791 59.2353 24.4997 59.2353 24.6231C59.2353 24.7885 59.1696 24.9471 59.0526 25.064C58.9357 25.181 58.777 25.2467 58.6116 25.2467Z" fill="white"/>
</g>
</svg>
