<svg width="24" height="25" viewBox="0 0 24 25" fill="none" xmlns="http://www.w3.org/2000/svg">
<g id="icon / jam-icons / outline &#38; logos / play-circle">
<path id="Vector" d="M12 22.4825C6.477 22.4825 2 18.0055 2 12.4825C2 6.95954 6.477 2.48254 12 2.48254C17.523 2.48254 22 6.95954 22 12.4825C22 18.0055 17.523 22.4825 12 22.4825ZM12 20.4825C14.1217 20.4825 16.1566 19.6397 17.6569 18.1394C19.1571 16.6391 20 14.6043 20 12.4825C20 10.3608 19.1571 8.32598 17.6569 6.82569C16.1566 5.3254 14.1217 4.48254 12 4.48254C9.87827 4.48254 7.84344 5.3254 6.34315 6.82569C4.84285 8.32598 4 10.3608 4 12.4825C4 14.6043 4.84285 16.6391 6.34315 18.1394C7.84344 19.6397 9.87827 20.4825 12 20.4825ZM16.126 14.2285L12.071 17.1265C11.166 17.7725 9.941 17.5155 9.334 16.5505C9.11494 16.1997 8.99918 15.7942 9 15.3805V9.58454C9 8.42454 9.883 7.48254 10.972 7.48254C11.363 7.48254 11.746 7.60654 12.071 7.83854L16.126 10.7365C17.031 11.3835 17.272 12.6885 16.666 13.6535C16.5251 13.8785 16.3417 14.0738 16.126 14.2285ZM10.972 9.58454V15.3805L15.027 12.4825L10.972 9.58454Z" fill="white"/>
</g>
</svg>
