<svg width="296" height="227" viewBox="0 0 296 227" fill="none" xmlns="http://www.w3.org/2000/svg">
<path d="M90.7144 12.683C81.3363 12.683 71.4258 12.683 62.0477 12.683V8.58046C67.1668 8.58046 73.3096 8.58046 78.4287 8.58046V4.4779C96.0791 4.4779 114.016 4.4779 131.667 4.4779V8.58046H135.762V12.683H139.857V8.58046H143.952V12.683C150.505 12.683 157.876 12.683 164.429 12.683C164.429 14.7343 164.429 18.8369 164.429 20.8882C169.548 20.8882 175.691 20.8882 180.81 20.8882V24.9907H184.905V29.0933H189V33.1959H193.095V37.2984H197.191C197.191 40.9497 197.191 45.9548 197.191 49.6061H193.095V53.7087C196.74 53.7087 201.736 53.7087 205.381 53.7087C205.381 55.76 205.381 59.8625 205.381 61.9138C207.429 61.9138 211.524 61.9138 213.572 61.9138V57.8112C215.619 57.8112 219.714 57.8112 221.762 57.8112V53.7087C223.81 53.7087 227.905 53.7087 229.952 53.7087V49.6061C232 49.6061 236.095 49.6061 238.143 49.6061V45.5035C247.521 45.5035 257.432 45.5035 266.81 45.5035V49.6061C270.454 49.6061 275.451 49.6061 279.095 49.6061V53.7087H283.191V57.8112C278.072 57.8112 271.929 57.8112 266.81 57.8112V61.9138C263.165 61.9138 258.169 61.9138 254.524 61.9138V66.0164C252.476 66.0164 248.381 66.0164 246.333 66.0164V70.1189C244.286 70.1189 240.191 70.1189 238.143 70.1189V74.2215H234.048V78.3241H229.952V82.4266H225.857V86.5292H221.762V90.6318H217.667V94.7343H213.572V98.8369H209.476V102.939H205.381V107.042H201.286V111.145H197.191V115.247H193.095V119.35H189V123.452H184.905V127.555H180.81V131.657H176.714V135.76H172.619V139.863H168.524V143.965C166.476 143.965 162.381 143.965 160.333 143.965V148.068C158.286 148.068 154.191 148.068 152.143 148.068V152.17C148.498 152.17 143.502 152.17 139.857 152.17V156.273C133.305 156.273 125.933 156.273 119.381 156.273V160.375C154.805 160.375 190.433 160.375 225.857 160.375V156.273C209.599 156.273 192.972 156.273 176.714 156.273C176.714 154.221 176.714 150.119 176.714 148.068H180.81V143.965H184.905V139.863H189V135.76C198.378 135.76 208.289 135.76 217.667 135.76V139.863C222.786 139.863 228.929 139.863 234.048 139.863V135.76C250.306 135.76 266.932 135.76 283.191 135.76V139.863C285.238 139.863 289.333 139.863 291.381 139.863C291.381 143.514 291.381 148.519 291.381 152.17H287.286V156.273H283.191V160.375H279.095V164.478H275V168.58C272.952 168.58 268.857 168.58 266.81 168.58V172.683C263.165 172.683 258.169 172.683 254.524 172.683V176.786C250.879 176.786 245.883 176.786 242.238 176.786V180.888C238.593 180.888 233.597 180.888 229.952 180.888V184.991C224.833 184.991 218.691 184.991 213.572 184.991V189.093C208.452 189.093 202.31 189.093 197.191 189.093V193.196C193.546 193.196 188.55 193.196 184.905 193.196V197.298C182.857 197.298 178.762 197.298 176.714 197.298V201.401C174.667 201.401 170.572 201.401 168.524 201.401C168.524 203.452 168.524 207.555 168.524 209.606H172.619V205.504H176.714V209.606H180.81V213.709H184.905V209.606H189V213.709H193.095V217.811H197.191V213.709H201.286V217.811H205.381V221.914H209.476V226.016C211.524 226.016 215.619 226.016 217.667 226.016C217.667 222.365 217.667 217.36 217.667 213.709H213.572C213.572 208.58 213.572 202.427 213.572 197.298H217.667C217.667 195.247 217.667 191.145 217.667 189.093C222.786 189.093 228.929 189.093 234.048 189.093V184.991C237.692 184.991 242.689 184.991 246.333 184.991V180.888C249.978 180.888 254.974 180.888 258.619 180.888V176.786C262.264 176.786 267.26 176.786 270.905 176.786V172.683C272.952 172.683 277.048 172.683 279.095 172.683V168.58H283.191V164.478H287.286V160.375H291.381V156.273H295.476C295.476 149.709 295.476 142.324 295.476 135.76H291.381V131.657C268.243 131.657 244.9 131.657 221.762 131.657V127.555H225.857V123.452H229.952V119.35H234.048V115.247H238.143V111.145H242.238V107.042H246.333V102.939H250.429V98.8369H254.524V94.7343H258.619V90.6318H262.714V86.5292H266.81V82.4266H270.905V78.3241H275V74.2215H279.095V70.1189H283.191V66.0164H287.286C287.286 60.8882 287.286 54.7343 287.286 49.6061H283.191V45.5035C279.546 45.5035 274.55 45.5035 270.905 45.5035V41.401C258.742 41.401 246.211 41.401 234.048 41.401V45.5035C232 45.5035 227.905 45.5035 225.857 45.5035V49.6061C223.81 49.6061 219.714 49.6061 217.667 49.6061V53.7087C215.619 53.7087 211.524 53.7087 209.476 53.7087V49.6061H205.381C205.381 47.5548 205.381 43.4523 205.381 41.401H201.286C201.286 39.3497 201.286 35.2471 201.286 33.1959H197.191V29.0933H193.095V24.9907H189V20.8882H184.905V16.7856C182.857 16.7856 178.762 16.7856 176.714 16.7856V12.683C174.667 12.683 170.572 12.683 168.524 12.683V8.58046C164.879 8.58046 159.883 8.58046 156.238 8.58046V4.4779C149.686 4.4779 142.314 4.4779 135.762 4.4779V0.375336C115.368 0.375336 94.7277 0.375336 74.3334 0.375336V4.4779C69.2144 4.4779 63.0715 4.4779 57.9525 4.4779V8.58046C54.3077 8.58046 49.3115 8.58046 45.6668 8.58046V12.683H41.5715V16.7856C39.5239 16.7856 35.4287 16.7856 33.381 16.7856V20.8882C31.3334 20.8882 27.2382 20.8882 25.1906 20.8882V24.9907H21.0953V29.0933H17.0001V33.1959H12.9049V37.2984H8.80962V41.401H4.71438C4.71438 43.4523 4.71438 47.5548 4.71438 49.6061H0.619141C0.619141 53.2574 0.619141 58.2625 0.619141 61.9138H4.71438C4.71438 59.8625 4.71438 55.76 4.71438 53.7087H8.80962C8.80962 51.6574 8.80962 47.5548 8.80962 45.5035H12.9049V41.401H17.0001V37.2984H21.0953V33.1959H25.1906V29.0933H29.2858V24.9907C31.3334 24.9907 35.4287 24.9907 37.4763 24.9907V20.8882C39.5239 20.8882 43.6191 20.8882 45.6668 20.8882V16.7856C61.9249 16.7856 78.5515 16.7856 94.8096 16.7856V12.683H90.7144Z" fill="white"/>
</svg>
